
<svg version="1" xmlns="http://www.w3.org/2000/svg" width="760" height="760" viewBox="0 0 570.000000 570.000000"><path d="M261.9 7.7c-.6 1.5-1.2 3.2-1.3 3.8-.4 1.6-2.5 9.3-5.7 20.5-5.1 18-6.9 30.8-6.3 45.5.6 16.1 1.7 23.3 5.6 35.5.6 1.9 1.3 4.4 1.4 5.5 1 6.2 1.6 9.2 2.1 10.5.3.8.7 1.7.8 2 .1.3.7 1.8 1.4 3.5.7 1.6 1.4 3.7 1.5 4.5.1.8.5 2.2.9 3 .7 1.7 1.5 5.6 2.7 14 .5 3 1.1 6.8 1.5 8.5 1 5.2.8 18.1-.4 20.4-.9 1.5-2.1 2.1-4.6 2.1-2.9 0-3.6.4-4.1 2.7-.4 1.5-.2 3.4.5 4.5s1.1 2.1.9 2.3c-.9.9-11.7-5.4-15.6-9.1-2.5-2.4-4.7-4.4-4.9-4.4-.1 0-5.9-5.5-12.8-12.3-10.2-9.9-24.5-23.6-32-30.5-.7-.6-1.8-1.2-2.3-1.2-.5 0-1.7-.9-2.7-2-1-1.1-2.9-2-4.2-2-1.2 0-2.3-.6-2.3-1.3 0-2-4-1.9-4.1.1-.4 4.8 1.1 16.4 3.6 27.7.3 1.6.8 4.8 1.1 6.9 1.1 8 14.5 33.3 20.4 38.3 1.1 1 2 2.1 2 2.5 0 .4 2.7 3.4 6 6.7 6.4 6.4 6.8 7.1 4.5 7.1-1.9 0-3.6 3.2-2.5 5 .5.8.5 2.1-.1 3.1-.6 1.2-.5 1.9.4 2.2 2.4 1-1.7 2.7-6.4 2.5-2.5 0-5.1.2-5.7.6-1.2.7-.6 3.2 1.2 5.3 3.1 3.5 3.6 4.3 3.6 5.7 0 2.2-1.9 3-7.2 3.1-2.6.1-5 .3-5.3.7-.9.8.6 3.8 1.9 3.8.6 0 2.3 1.1 3.8 2.5 3.3 3.1 2.8 6.1-1.4 6.9-2 .4-2.7 1-2.1 1.8 1 1.7 1.5 3.7 1.7 7.2.1 2.5-.3 3-2.9 3.3-1.6.2-3.3.7-3.7 1.1-.3.4-.3 5.8 0 12 .7 10.9.8 11.5 3.4 13.4 2.2 1.5 2.6 2.3 1.8 3.7-.5 1-.7 2.7-.4 3.8.4 1.6 0 2.2-2 2.7-2.9.7-5.3 4.3-3.9 5.7.5.5 3.2 1.2 5.9 1.5 5.7.7 8.9 2.9 6.4 4.4-.8.5-2.3 1-3.2 1-2.7 0-4.3 3.8-2.5 5.8.8.9 2.3 4.3 3.3 7.5 1 3.1 2.4 5.7 3.1 5.7.7 0 1.8.9 2.5 2 1.4 2.2 3.9 2.6 6.9 1 1.5-.8 2.1-.7 2.5.4.3.8 1.4 1.8 2.5 2.1 1.1.4 1.9 1.5 1.9 2.9 0 2.4 1.9 8.8 2.9 9.6 3.8 3.2 4.1 4.6 2.5 9.4-1.6 4.6-1.6 4.9.5 6.9 1.6 1.6 2.4 1.8 3.2 1 .9-.9 1.9-.9 4 .2 2.3 1.3 2.8 2.2 3.1 6.6.4 6.3-.7 7.3-7.8 7.2-3 0-5.4.3-5.4.8 0 .7-8.6 2.5-10.2 2.1-.4-.1-2.4.4-4.5 1.1-2.1.7-4.5 1.3-5.3 1.2-.8-.1-2.3.3-3.3.8-1.1.5-3.1 1-4.6 1.2-4.7.6-24.4 10.8-29.4 15.2-3.9 3.4-9.7 11.2-9.7 13 0 .7-.4 1.3-.9 1.3-.7 0-2.5 3.5-3.5 7-.1.3-.6 1.5-1 2.8-.8 2.5.8 11 2.9 15.2.7 1.4 2.4 3.7 3.7 5.1 1.4 1.4 3.7 4.7 5.2 7.2 2.7 4.8 15 14.4 22.4 17.7 1.2.5 2.2 1.4 2.2 1.9s.8 1.1 1.7 1.3c1 .2 1.8 1.2 1.8 2.3 0 1.6.6 2 3.2 1.8 1.7-.2 3.5.2 3.8.7.3.6 1.5 1 2.6 1 2.8 0 2.3 1.4-1.6 4.6-1.9 1.5-3.5 3.5-3.4 4.3 0 1.2.3 1.1.9-.4.5-1.1.9-1.6.9-1.2.1.5 1.3-.5 2.7-2.2 2.6-3.2 5.1-3.8 8.2-2.2 1.9 1.1 5.3 2.4 6.5 2.5.4.1.7.5.8 1.1 0 .5.5 1.5 1 2.2.7.7.5 1.3-.3 1.6-.7.2-1.1.7-.8 1 .3.3 1.2.2 2-.3 1.1-.7 1.1-1.1.1-2.3-.7-.9-.8-1.8-.3-2.1.6-.3 1.2.1 1.6.9.3.9 1.2 1.2 2.2.8 1.1-.4 1.5-.2 1.1.4-.4.6.7 1.1 2.6 1.2 5.4.3 5.6.4 5 1.4-.4.6 0 .8 1 .4.9-.3 1.9-.2 2.2.3.3.5 1.2.7 2 .3.8-.3 1.5 0 1.5.6s-.4 1.1-.9 1.1-1.2.8-1.5 1.8c-.4 1-1.5 2.8-2.7 4-1.1 1.2-1.6 2.2-1.1 2.2s2.2-1.9 3.7-4.2c2.6-3.9 2.8-4 4.1-2.3.8 1 1.4 1.4 1.4.9 0-.6-.6-1.6-1.2-2.3-1.1-1-.6-1.1 2.1-.6 1.9.3 4.1.9 5 1.4.9.5 2.3.6 3.1.3 1.3-.5 1.3-.3.1 1.1-.9 1.2-1 1.7-.2 1.7.6 0 1.4-.6 1.7-1.4.4-1 1.4-1.3 3.2-.9 1.5.3 3.5.5 4.4.5.9 0 2 .8 2.3 1.9.4 1.1 1.1 1.6 1.7 1.3.6-.4.5-1-.3-1.6-1-.6-.7-.7 1-.3 1.7.5 2.1.4 1.6-.5s-.3-.9 1.1-.2c1.1.5 3.1.9 4.7.8 1.5-.1 2.7.2 2.7.6 0 .4-.4.8-1 .8-.5 0-1 .5-1 1.2 0 .9.3.9 1.1.1 1.3-1.3 4.2-.6 3.3.8-.3.5-1 .7-1.5.4-.5-.4-.9-.1-.9.4 0 1.4 1.1 1.4 3 .1 1.3-.9 1.3-1.2-.2-2.4-1-.7-1.8-1.5-1.8-1.7 0-.2 2.7-.4 5.9-.4 3.3 0 5.7.3 5.5.7-.3.4 0 .8.5.8.6 0 1.1-.5 1.1-1.1 0-.5.5-.7 1-.4.6.3 1 0 1-.7 0-.9.3-.9 1 .2.6.9 1.3 1.1 1.8.5 1-1.3 10.2-1.6 10.2-.3 0 .6.6.8 1.4.5.8-.3 2.1.4 2.9 1.7 2.1 3.2 8.7 9.8 8.7 8.7 0-.5-1.8-2.6-4-4.7-2.8-2.7-3.8-4.4-3.4-5.6.5-1.6.1-1.8-2-1.4-1.4.3-2.6 0-2.6-.5s.9-1 2-1c2.9-.2 6-.6 6.3-.9.1-.1 1.1-.3 2.2-.5s3.1-.6 4.5-1 3.5-.7 4.7-.7c1.3 0 2-.4 1.7-.9-.3-.5.2-.6 1-.3.9.4 1.6.1 1.6-.6s.7-1 1.5-.6c.8.3 1.5 0 1.5-.6s.3-.8.6-.5c.4.3 1.6.1 2.8-.5 2.3-1.3 2.8-1.5 5.2-1.7.9 0 1.2-.6.8-1.3-.4-.6-.3-.8.4-.4.6.3 1.3.2 1.7-.4.8-1.3 4.5-1.3 4.5 0 0 .5-.8.7-1.7.3-1.5-.5-1.6-.3-.6.8 2 2.1 4.1-.5 2.2-2.7-.8-1-.9-1.5-.3-1.1.7.4 1.4 0 1.8-.8.3-.8 1.2-1.5 2.1-1.5.8 0 1.5-.4 1.5-.8 0-.5.6-.9 1.3-1 3.8-.5 5.4-1 7.6-2.1 2.2-1.2 2.7-1 5.8 2.3 3.4 3.6 6.1 5.2 3 1.8-1.7-1.8-1.4-3.2.6-3.2.6 0 .7.3.4.6-.4.4.3 1.5 1.5 2.5 2.9 2.6 3.3 2.4.9-.7-1.1-1.4-1.8-3.1-1.5-3.9.7-1.7-1.2-2.9-2.2-1.4-.4.8-.3.9.4.5s1.2-.3 1.2.1c0 1.1-3.7 3.3-4.4 2.6-.9-.9 5.1-6.3 7.1-6.3.9 0 2.7-1 4-2.2 1.3-1.2 2.3-1.7 2.3-1.1 0 .5-1.1 2-2.5 3.3-2.7 2.5-3.2 4-1.3 4 .6 0 .9-.3.5-.6-.8-.9 3.5-5.4 4.6-4.7.5.3.5.8.1 1.2-1.6 1.1-4 4.5-2.6 3.7.6-.4 1.2-.2 1.2.3 0 .6.5 1.1 1.1 1.1.8 0 .8-.4 0-1.4-.9-1-.8-1.6.4-2.6.8-.7 1.2-1.6 1-2.1-.3-.4.3-1.2 1.2-1.8 1-.6 1.3-1.1.7-1.1-.5 0-1.5.5-2.2 1.2-.8.8-1.2.8-1.2.1 0-.6.7-1.6 1.5-2.3.8-.7 1.5-.9 1.5-.4 0 .4.6-.1 1.4-1.1.9-1.2 1.9-1.6 3.2-1.1 1 .4 1.5.4 1.2 0-.4-.4-.3-1.5.3-2.6s1.3-1.7 1.6-1.4c.7.7 8-8.9 8.9-11.6.3-1 1-1.5 1.6-1.2.6.4.8.2.4-.4-.7-1.1 1.3-6.2 2.4-6.2.4 0 1.3.7 2 1.5 1 1.2 1 1.5-.1 1.5-.8.1-.4.6.9 1.3 1.2.7 1.9 1.6 1.6 2-.4.4-.2.8.4.8 1.4.2 4.8.6 6.1.8.5 0 .7 2 .4 4.3-.2 2.4-.4 5.1-.4 6.1 0 1.3-.5 1.7-1.7 1.3-1.4-.5-1.4-.3.2.8 1.2 1 1.7 2.3 1.4 3.9-.2 1.2.1 2.9.9 3.5.7.7 1.3 2.1 1.3 3.1 0 1.4 1.8 2.6 6.5 4.5 7.4 2.9 7.9 3.1 6.9 1.4-.5-.7-.2-.9.9-.5 2 .8 4.8-3.3 4.5-6.8-.1-1.4-.5-2.5-.9-2.5-.7 0-2.2-3.9-2-5.1 0-.4-1.9-.6-4.3-.5-2.7 0-4.3-.3-4.3-1.1 0-.7.5-.9 1.1-.6.6.3.6 0-.1-.7-1-1.1-.9-1.6.5-2.7.9-.8 1.1-1.2.5-.8-.8.4-1.3 0-1.3-.9 0-2.6 4.8-2.4 6.8.2.7.9 1.2 1.1 1.2.4 0-.7-.9-1.7-2-2.4-1.9-1.2-1.9-1.3.2-3.5 1.2-1.3 3-2.3 4-2.3 1.1 0 1.6-.5 1.3-1-.9-1.4.8-1.2 2.5.2 1.2 1.1 1.2 1 .1-.4-1.1-1.5-1.1-2.4.3-5.3 2.3-4.8.8-9.3-4.5-13.9-4.1-3.5-9.1-5.1-14.4-4.7-4.5.4-12.1 4-14.2 6.7-2.4 3.2-2.8 3-3.1-1.1-.3-4.1-3.3-9.6-7.9-14.1-1.8-1.8-3.3-3.1-3.3-2.9 0 .3-2.1-1.1-4.6-3-2.5-1.9-4.9-3.5-5.4-3.5s-1.5-.6-2.2-1.2c-2.6-2.5-18.9-9.8-21.8-9.8-1 0-2.1-.4-2.4-.9-.3-.4-2.7-1.4-5.3-2.1-7.8-2-11.7-3.3-13.3-4.5-1.5-1.1-10.3-3.7-12.7-3.8-1.6 0-1.7-1.7-.3-1.7.6 0 3.5-1.6 6.5-3.5 4.4-2.8 5.5-4 5.5-6.1 0-2.5.2-2.6 3.9-2 5 .8 5.7-.3 6.8-9.9.5-4.7 4.1-12.4 6.5-14.3.9-.7 1.8-2.2 2-3.5.3-2.5 3.5-3.1 5.6-1 2 1.9 4.3 1.6 4.9-.6.3-1.3 1.2-1.8 2.6-1.5 1.2.2 2.7 0 3.2-.4 1.7-1.2 3.5-6.1 3.5-9.7 0-1.9.5-3.5 1-3.5 2.2 0 .9-5.2-2.1-8.1-1.7-1.7-2.9-3.2-2.7-3.5.3-.2 2.9-1.2 5.9-2.2 4.1-1.4 5.5-2.4 5.7-4.1.3-1.6-.2-2.4-1.6-2.8-1.7-.4-2-1.2-1.7-4.6.2-2.5 1-4.7 2.1-5.7 1.3-1 1.8-2.5 1.6-4.8-.2-1.9.3-4.1 1-5 .8-1 1.3-2.8 1.1-4.2-.1-1.4.3-4.2.9-6.2 1.3-4.4 0-6.8-3.8-6.8-2.1 0-2.4-.5-2.4-4 0-2.5-.6-4.2-1.5-4.8-2.3-1.3-.9-3.9 4.1-7.3 6.9-4.7 5.9-7-3.2-7.4-3-.1-5.9-.6-6.4-1.1-.6-.6.2-2.7 2-5.4 1.7-2.5 2.9-5.4 2.8-6.5-.4-2.5-3.5-2.7-6.6-.4-1.3 1-2.9 1.6-3.5 1.3-.7-.2-2.5.7-4.1 2.1-3.5 3-5 3.1-6.8.6-1.2-1.7-4.1-2.7-8.5-3-2.1-.2-1.5-1.8 1.8-5.6 2.4-2.7 3.4-3.3 4.5-2.4 2.1 1.7 6.3-1.9 6.4-5.6 0-2.4 1.5-4.6 7.5-10.5 4.2-4.1 8.6-9.1 9.9-11 9.4-14.2 11.6-18.9 16-34.5 1.4-5 3-10.4 3.5-12 .4-1.7.9-4.4 1-6 0-1.7.6-4.4 1.1-6 1.9-5.6 1.8-9.3 0-11-1.7-1.5-2.1-1.5-5.7.7-2.1 1.3-5.4 3.2-7.2 4.3-1.9 1.1-4.2 2.8-5.3 3.7-1 1-2 1.8-2.3 1.8-.3 0-1.9 1.5-3.6 3.2-1.7 1.8-4.1 4-5.4 4.8-2.5 1.6-13.1 11-20.2 17.7-2.4 2.4-4.7 4.3-5.2 4.3-.4 0-3.3 2.5-6.4 5.4-7.2 7-8.7 7.8-11.8 6.3-1.3-.7-2.5-1.8-2.5-2.5-.1-.7-.2-2-.3-3 0-1-1.2-2.5-2.6-3.2-2.9-1.6-3-2.6-.8-9.4 1.8-5.8 9.9-27.6 11.8-32.1 1.5-3.3 2.5-6.6 2.4-7.8 0-.4.7-2 1.5-3.5 1.6-3 6.5-18.4 7.1-22.2.2-1.4 1.5-5.8 2.9-9.8 1.5-3.9 2.8-8.5 2.9-10 .2-1.5.6-3.2.8-3.7.3-.6.7-5 .8-9.9.2-4.9.6-9.9 1-11 .8-2.5.8-8.7-.2-14.1-.4-2.2-1-6.9-1.2-10.5-.3-3.6-.9-9.4-1.4-13-.5-3.6-.7-6.8-.5-7.2.3-.4 0-.9-.6-1.3-2.2-1.4-3.3 5.5-3.4 22.5-.2 17.3-.8 22-2.7 22-.6 0-.7.4-.4 1 .3.5-.3 1-1.5 1s-3 .5-4.1 1c-2.2 1.2-2.7.5-3.2-5.2-.9-9.5-3.7-3.1-3.8 8.5 0 4.5.2 9.3.5 10.7 2.2 11.8 2.8 25.2 1.2 27.8-.4.6-1.3 3.3-2.1 5.9-1.6 5.8-3.7 11.3-5 13.3-.5.8-1 2.1-1.1 2.8-.2.8-1.1 2.3-2.1 3.4s-1.7 2.3-1.6 2.7c.5 1.1-.8 4.1-1.8 4.1-.5 0-.9.9-.9 1.9 0 1.1-.4 2.2-.9 2.5-.4.3-1.1 2-1.5 3.8-.3 1.7-1.3 3.9-2.2 4.9-.8.9-1.8 3.2-2.1 5-.3 1.9-1.1 4.6-1.9 6.1-.8 1.5-1.4 3.6-1.4 4.7s-.4 2.2-.9 2.5c-.5.4-1.2 2.4-1.6 4.6-.4 2.3-1.9 5.3-3.5 7-1.5 1.6-2.6 3.1-2.3 3.3 1.1 1.1-5.7 1.2-7.2.1-2.7-2-5.9-21.4-3.6-21.4 1.1 0 1.1-2.7-.1-4.6-1.8-2.8-3.8-10.7-3.3-12.5.5-1.4 0-2.8-1.6-4.5-1.9-2-2.1-2.8-1.1-4.8.9-2.1.7-2.8-1.3-5-1.3-1.4-2.8-2.6-3.2-2.6-.5 0-1-1.7-1.1-3.7-.2-2.1-.7-4.2-1.2-4.7-.6-.6-1-1.6-1-2.3 0-.7-.8-3.2-1.9-5.6-3.2-7.3-3.9-11.8-4.7-28.7-.8-20.2-1-22-1.9-24.3-.9-2.3 1.2-4.9 3.8-4.5 3.6.5 2.9-2-1.3-4.4l-4.1-2.3.2-6c.1-3.3.5-6.7.9-7.5 1.1-2.1 2.8-15.6 3.2-24.9.3-6.2-1.5-8-3.3-3.4zm75.6 63.6c.9 4.4.3 10.3-1 10-.5-.1-1.1-1.3-1.3-2.5-.2-1.3-.8-3.5-1.4-5.1-.8-2-.7-3.1.2-4.2 1.9-2.3 2.9-1.8 3.5 1.8zM364 488.4c0 .3-.4.8-1 1.1-.5.3-1 .1-1-.4 0-.6.5-1.1 1-1.1.6 0 1 .2 1 .4zM193 492c0 .5-.7 1-1.5 1s-1.5-.5-1.5-1c0-.6.7-1 1.5-1s1.5.4 1.5 1zM105.1 367.7c-1.3.3-3.3 1.3-4.3 2.3-1.7 1.6-1.9 2.3-1 5.2.6 1.8 1.3 5.8 1.6 8.8.2 3 .7 6.2 1 7 .4 1.2 1.3 11 1.6 16.6 0 .6 1.6 3.1 3.5 5.5 4.7 6 4.5 11.3-.7 12.3-1.4.3-3.8 1.1-7.6 2.7-2.3.9-4.6 5.1-3.1 5.7.5.2.9 1 .9 1.8s.7 1.4 1.5 1.4c.9 0 1.8.7 2.2 1.6.5 1.3.7 1.3 1.4.2.7-1 .9-.9.9.4 0 1 .5 1.8 1.1 1.8.5 0 .7-.5.4-1-.3-.6-.1-1 .4-1 .6 0 1.1.4 1.1 1 0 .5.5 1 1.1 1 .5 0 .8-.4.5-.9-.4-.5 2.8-.8 7.4-.7 4.5.1 8-.3 8-.8s.3-.6.7-.3c.3.4 1.3.1 2.1-.6 1.3-1 1.5-.9.9.5-.3 1 .1 2.2 1.1 3 1.5 1.1 1.5 1.1.5-.3-1.7-2.2-.3-3.3 1.4-1.1 1.3 1.5 1.3 1.5.3-.6-1.2-2.4-.6-4.2 1.3-4.2.7 0 1.2-1.3 1.1-3.2-.1-3.5-2.9-6-6.7-6.2-3.6-.2-8.6-2.7-9.2-4.6-.6-2 .3-5 1.6-5 .5 0 .9-.6.9-1.3 0-.8 1.1-2.4 2.5-3.7 1.3-1.3 2.4-3.2 2.4-4.4-.2-4.5 1.3-22.1 2.2-26.5 2-9.4 2-9.9.7-10.7-2.2-1.4-17-2.5-21.7-1.7z"/><path d="M131 438.2c0 .4.4.8.9.8.6 0 1.2-.4 1.5-.8.3-.5-.1-.9-.9-.9s-1.5.4-1.5.9zM109.6 441.5c-.7.8-1.7 1.1-2.1.7-.5-.4-.5-.1 0 .7.5.9.2 1.9-1 2.8-1.1.7-1.4 1.3-.8 1.3.7 0 2.1-1.4 3.3-3 1.8-2.5 2.5-2.8 3.6-1.9.8.7 1.4.7 1.4.1 0-1.7-2.9-2.2-4.4-.7zM115.3 442.5c-.1 1.1.1 1.4.4.7.3-.6.8-1 1.3-.7.4.3 1-.1 1.3-.8.3-.7-.3-1.3-1.2-1.3-1 0-1.7.9-1.8 2.1zM124.7 440.9c.4.7-1.9 3.1-2.9 3.1-.6 0-.5-.7.2-1.5.9-1 .9-1.5.1-1.5-.6 0-1.1.5-1.1 1.1 0 .5-.4.7-1 .4-.5-.3-1-.2-1 .3 0 1.8 3.3 2.2 5 .7 1.3-1.2 1.9-1.3 2.2-.4.2.7 1.2 1.3 2.1 1.5.9.1 1.4-.2 1.1-.8-.3-.5-.8-.7-1.1-.4-.3.3-1.3-.3-2.2-1.2-.9-1-1.5-1.6-1.4-1.3zM105.1 443.6c0 1.1.3 1.4.6.6.3-.7.2-1.6-.1-1.9-.3-.4-.6.2-.5 1.3z"/><path d="M111.3 443.6c.4.4 0 1.2-.9 1.9-1.4 1-1.4 1.2.3 2.5 1.5 1.2 1.6 1.2.5 0-1-1.2-.8-1.6.9-2.6 2-1 2-1.1.3-1.8-1-.4-1.5-.4-1.1 0zM117 444.9c0 .5.7 1.2 1.6 1.5 1.4.5 1.5.4.4-.9-1.4-1.7-2-1.9-2-.6zM123.5 446.1c-.4.6-.5 1.2-.2 1.5.2.3.7-.2 1-1.1.7-1.7.1-2-.8-.4zM429.9 463.7c-1.3 1.6-1.2 1.7.4.4.9-.7 1.7-1.5 1.7-1.7 0-.8-.8-.3-2.1 1.3zM435.1 462.8c-.1.8-.6 1-1.3.6-1-.5-1-.4-.1.6 1.5 1.6 2.8.8 2-1.2-.4-1.1-.6-1.1-.6 0zM407.1 464.6c0 1.1.3 1.4.6.6.3-.7.2-1.6-.1-1.9-.3-.4-.6.2-.5 1.3zM403 465.8c0 .4 1.4 1.5 3 2.4 1.7.9 3 1.4 3 1 0-.4-1.4-1.5-3-2.4-1.7-.9-3-1.4-3-1zM409 465.9c0 .6.4 1.1.9 1.1s1.1.8 1.3 1.7c.3 1.4.5 1.3 1-.5.4-1.3.4-2.1.1-1.8-.4.3-1.2.1-2-.5-.9-.9-1.3-.8-1.3 0zM431 466c0 .5.5 1 1 1 .6 0 1 .7 1 1.7 0 .9.3 1.4.6 1 .8-.8-.5-4.7-1.7-4.7-.5 0-.9.4-.9 1zM435.9 467.3c.8.9 1.6 1.5 1.9 1.2.3-.3 1.2.1 2.1.8 1.4 1.1 1.4 1 .2-.6-.8-.9-1.6-1.5-1.9-1.2-.3.3-1.2-.1-2.1-.8-1.4-1.1-1.4-1-.2.6zM399.5 468c.3.5.8 1 1.1 1 .2 0 .4-.5.4-1 0-.6-.5-1-1.1-1-.5 0-.7.4-.4 1zM403 469.4c0 .2.9.6 2 .9 1.1.3 1.8.1 1.4-.4-.5-.9-3.4-1.3-3.4-.5zM426 469.4c0 .2.7.6 1.5 1 .8.3 1.5.1 1.5-.4 0-.6-.7-1-1.5-1s-1.5.2-1.5.4zM404.7 472.1c.7.7 1.5 1 1.8.7.3-.3-.2-.9-1.2-1.2-1.4-.6-1.5-.5-.6.5zM408.5 472c-.3.6.1.7.9.4 1.8-.7 2.1-1.4.7-1.4-.6 0-1.3.4-1.6 1zM425 472.1c0 .5.5.7 1 .4.6-.3 1-.8 1-1.1 0-.2-.4-.4-1-.4-.5 0-1 .5-1 1.1zM388.6 476.2c.3.5 1 .6 1.5.3 1.3-.9 1.1-1.2-.6-1.2-.8 0-1.2.4-.9.9zM383 480c0 .5.7.7 1.5.4.8-.4 1.5-.8 1.5-1 0-.2-.7-.4-1.5-.4s-1.5.4-1.5 1zM386 481c-.7 1-1.7 1.7-2.2 1.4-.4-.3-.8 0-.8.5 0 .6.5 1.1 1.1 1.1.5 0 .7.5.3 1.2-.4.7-.3.8.5.4 1.5-.9 4.1 1.1 4.1 3.2 0 .8-.3 1.3-.6.9-.9-.9-5.1 4.5-5.1 6.6 0 1.2.4 1.4 1.1.7.5-.5 1.4-1 1.9-1 1.3 0-1.3 3-2.7 3-.6 0-2.4 1.2-3.9 2.5-2.2 2-2.6 2.9-1.8 4.2.6 1 1.1 1.3 1.1.8.1-.6.6-.1 1.1 1 .9 1.9.9 1.9.5-.2-.4-2.2 1.9-5.1 3.1-3.9.3.3 1.5-.2 2.5-1.1 1.7-1.5 2-1.6 3.5 0 1.6 1.5 1.5 1.8-.7 3.7-1.3 1.1-1.8 2-1.3 2 .6 0 1.6-.7 2.3-1.5.7-.9 1.5-1.3 1.8-1 .3.3-.3 1.4-1.3 2.5s-1.4 2-.9 2c.5 0 1.8-1.4 2.8-3.1 1.1-1.8 1.4-2.9.7-2.5-.6.4-1.1.3-1.1-.3s-1.2-2.1-2.7-3.5c-1.5-1.4-2.4-2.8-2-3.2.3-.4 2.3 1 4.3 3s3.9 3.6 4.2 3.6c.3 0-1.2-1.8-3.3-4-2.1-2.2-3.4-4-2.7-4 .6 0 2.2 1.1 3.6 2.5 3.3 3.3 4.6 3.2 1.5-.1l-2.4-2.6 2.5.6c2.4.7 2.4.6-.3-.9-2-1.2-3.2-1.3-4.6-.5-3.4 1.8-3.7 1.1-.7-1.6 2.3-2.2 3-2.4 3.7-1.3.5.8.9.9.9.3 0-.5-.5-1.5-1.2-2.2-.9-.9-.9-1.2.1-1.2.7 0 1-.4.6-.9-.3-.5.4-1.3 1.6-1.6 1.1-.4 1.8-.9 1.6-1.2-.3-.2-1.5.1-2.8.7-1.9 1.1-2.1 1-1.6-.4.4-1.1.3-1.5-.4-1.1-.5.4-.7 1.5-.4 2.6.5 1.4-.4 3-3 5.6-1.9 1.9-3.9 3.3-4.2 2.9-.4-.4.8-2 2.6-3.5 2.3-2 3.2-3.4 2.7-4.6-.6-1.8 1.6-5.9 2.7-4.8.4.3.7.1.7-.5 0-1.5-3.6-1-5.2.6-2.1 2.1-3.2 1.3-1.3-.8 1-1.1 1.6-2.2 1.4-2.5-.3-.2-1.1.4-1.9 1.5zm3.5 2.9c-.3.6-1.1 1.1-1.7 1.1-.6 0-.6-.6.2-1.5 1.4-1.7 2.6-1.3 1.5.4zm-2.5 15.7c0 1.1-2.5 3.1-3.6 2.7-.6-.2-1.7.3-2.4 1.2-1.4 1.7-3.5 2.1-2.4.4.7-1.2 6.5-4.9 7.7-4.9.4 0 .7.3.7.6z"/><path d="M381 484.5c0 .8.4 1.5 1 1.5.5 0 .7-.7.4-1.5-.4-.8-.8-1.5-1-1.5-.2 0-.4.7-.4 1.5zM173.6 485.9c.9.9 3.4.9 3.4.1 0-.5-.9-.8-2-.7-1 .1-1.7.3-1.4.6zM177.7 487.4c-.4 1-.3 1.5.3 1.1.6-.3 1-.1 1 .4 0 .6.4 1.1.8 1.1.5 0 .9-.7.9-1.5s-.4-1.2-.8-.9c-.4.2-.9-.1-1.1-.8-.3-.7-.7-.5-1.1.6zM369.5 487c.3.5.8 1 1.1 1 .2 0 .4-.5.4-1 0-.6-.5-1-1.1-1-.5 0-.7.4-.4 1zM182 488.5c0 .8.2 1.5.4 1.5s.6-.7 1-1.5c.3-.8.1-1.5-.4-1.5-.6 0-1 .7-1 1.5zM379.6 488.5c.4.8.8 1.5 1 1.5.2 0 .4-.7.4-1.5s-.4-1.5-1-1.5c-.5 0-.7.7-.4 1.5zM384.6 488.6c-.3.8-1 1.2-1.6.9-.5-.3-1-.1-1 .4 0 1.8 2.4 1.2 3.8-.9.7-1.1.8-2 .3-2s-1.2.7-1.5 1.6zM171.4 490.4c.4 1 .1 2.6-.6 3.5-1.1 1.4-1 1.4.6 0 1.5-1.4 1.6-2 .6-3.5-1.1-1.8-1.1-1.8-.6 0zM173.6 490.1c.3.5 1.4.9 2.5.9 1 0 1.8.5 1.7 1.1-.2.6.4 1.4 1.2 1.6 1.2.4 1.2.3.2-.5-.8-.5-1.3-1.3-1.3-1.8s-1.1-1.2-2.4-1.6c-1.4-.3-2.3-.2-1.9.3zM183.6 490.5c-.3.8-1.1 1.3-1.8 1.1-.7-.1-1-.1-.5.1.4.3.5.9.1 1.4-.3.5-.1.9.4.9.6 0 1.3-.8 1.7-1.8.6-1.5 1-1.3 3.1 1.3 1.3 1.6 2.4 2.6 2.4 2.1 0-.4-1.1-2.1-2.4-3.7-1.8-2.1-2.5-2.5-3-1.4zM370 490c0 .5.5 1 1.1 1 .5 0 .7-.5.4-1-.3-.6-.8-1-1.1-1-.2 0-.4.4-.4 1zM395 490c0 .5.5 1 1 1 .6 0 1-.5 1-1 0-.6-.4-1-1-1-.5 0-1 .4-1 1zM417.9 489.2c-.9 3-.6 3.7 1.1 2.8 2.4-1.3 3.3-1.3 2.5 0-.9 1.4 2.4 2.5 3.7 1.2.8-.8.5-.9-1.1-.5-1.5.4-2.1.1-1.9-.8.2-.9-.5-1.3-2-1.2-1.3.2-2.1-.1-1.7-.7.3-.6.4-1 .1-1-.3 0-.6.1-.7.2zM373.5 490.9c.3.5-.3 1.2-1.2 1.5-1 .2-.3.3 1.5.1 2.2-.2 3.2 0 2.9.8-.2.7-1.3 1.1-2.3.9-1.6-.2-1.7-.1-.4.7.9.7 1 1.1.3 1.1-1.3 0-4.3 2.7-4.3 4 0 .4 1.6 2.5 3.5 4.4 1.9 2 3.5 3.2 3.5 2.7s-1.4-2.3-3.2-4l-3.2-3.1 4.3-3.9c2.4-2.2 4.8-4.2 5.5-4.5.6-.3-.4-.4-2.1-.2-1.8.3-3.3 0-3.3-.5s-.5-.9-1.1-.9c-.5 0-.8.4-.4.9zM358.9 493.8c1.8 2.5 1.8 2.6-.8 5.5-1.4 1.6-3.8 3.5-5.4 4.3-1.5.8-4.3 3.1-6.2 5.2-3.9 4.2-4.8 3.2-1-1.2 1.4-1.6 2.5-3.4 2.5-3.9 0-1.5-5.9 6.5-6 8 0 .6.9 1.1 2 1 1-.1 1.7-.3 1.5-.5-.2-.2 1.2-1.9 3-3.9l3.3-3.5 4.3 4.1c2.4 2.3 4.7 4.1 5.2 4.1.4 0-1.4-2-4-4.5-4.7-4.3-4.9-6.5-.3-2.5 1.3 1.1 2.7 2 3.3 2 .5 0-.1-.9-1.4-2-1.3-1-1.9-1.9-1.4-2 .6 0 1.6.5 2.2 1.1.7.7 1.2.6 1.6-.5.4-1.1.1-1.3-1.1-1-1 .4-.7-.2.8-1.5 1.4-1.1 2.1-2.1 1.5-2.1-.5-.1-.1-.6 1-1.1 1.7-.7 1.7-.8.2-.6-1 .1-1.7.6-1.7 1.1.2 1-4.9 4.6-6.5 4.6-.5 0 .9-1.8 3.2-4 2.8-2.6 4.8-3.7 5.9-3.3.9.3.3-.7-1.3-2.4-1.6-1.6-3.7-3-4.6-3-1.5 0-1.5.3.2 2.5zm2.6.2c1 1.1 1.3 2 .7 2-.6 0-1.6-.9-2.2-2-.6-1.1-.9-2-.7-2 .2 0 1.2.9 2.2 2zM398.6 492.2c.3.5 1 .6 1.5.3 1.3-.9 1.1-1.2-.6-1.2-.8 0-1.2.4-.9.9z"/><path d="M355 493.8l2.3 1.9-2.3 2.6c-1.2 1.4-2.9 2.3-3.6 2-.8-.3-1.4-.3-1.4 0s.7.7 1.5 1.1c1.5.5 6.5-3.6 6.5-5.4 0-1.2-2.9-4-4.2-4-.6 0 0 .8 1.2 1.8zM380.5 493c-1.6.7-1.7.9-.3.9.9.1 2-.4 2.3-.9.7-1.1.7-1.1-2 0zM395.4 493.2c.3 1.5 2.6 2.3 2.6.8 0-.6-.4-.9-.9-.6-.5.4-1.2.1-1.4-.4-.3-.6-.4-.5-.3.2zM429.5 492.9c-.3.5-.2 1.2.3 1.5.5.3.9-.1.9-.9 0-1.7-.3-1.9-1.2-.6zM173.1 494.3c-.6.8-.8 1.6-.5 2 .3.3-.4 1-1.5 1.7-1.2.6-1.9 1.5-1.6 2 .3.5-.4 1.2-1.6 1.5-1.1.4-1.8.9-1.6 1.2.9.8 4.8-1.8 4.2-2.8-.4-.5 0-.9.8-.9 1.4 0 3.2-2.7 2.9-4.3-.1-.4.3-.7.8-.7 1.7 0 1.1 2.9-1 5-1.1 1.1-1.6 2-1 2 .5 0 1.7-1.1 2.6-2.5 2.5-3.8.3-7.5-2.5-4.2zM184.9 494.6c.6 1.2.7 2.4.4 2.8-.3.3-.1.6.5.6 1.6 0 1.5-1.2-.4-3.6-1.5-1.8-1.5-1.8-.5.2zM418 494.1c-1.2.9-1.2 1 .4.5 1.4-.5 1.7-.3 1.2 1.1-.6 1.5-.5 1.6.5.5 1.8-1.7-.1-3.5-2.1-2.1zM427.5 494.7c.3 1.2.1 2.4-.5 2.8-.5.3-1 1.4-1 2.3 0 1.1.6.7 1.5-1.2 1.1-2 1.2-3.3.4-4.5-.8-1.3-.9-1.2-.4.6zM194.2 494.7c-.6.2-1 .9-.6 1.4.8 1.3-1 1.1-2.4-.3-.9-.9-1.2-.9-1.2 0 0 .7.5 1.2 1.1 1.2.5 0 .7.5.3 1.1-.5.8-.1.8 1.4 0s4.2-4.5 2.9-4c-.1 0-.8.3-1.5.6z"/><path d="M349.5 495c-.4.6-1.1.7-1.7.4-.7-.4-.8-.2-.4.4.4.7.2 1.2-.3 1.2-.6 0-1.1.5-1.1 1.1 0 .5.4.8.9.4.5-.3 1.2.3 1.5 1.2.4 1.5.4 1.4.3-.2-.1-1.1.2-2.6.6-3.3 1-1.4 3.7-1.6 3.7-.2 0 .5-.7 1-1.5 1s-1.5.4-1.5 1c0 1.4 2.3.8 3.7-1 .8-1.1.9-1.7 0-2.2-1.7-1.1-3.5-1-4.2.2zM399 494.4c0 .2.8 1 1.8 1.7 1.5 1.3 1.6 1.2.3-.4s-2.1-2.1-2.1-1.3zM178 496.2c0 1.1 1.2 1 3-.2 1.2-.7 1-.9-.8-.7-1.2 0-2.2.5-2.2.9zM183.1 496.6c0 1.1.3 1.4.6.6.3-.7.2-1.6-.1-1.9-.3-.4-.6.2-.5 1.3zM375.6 497.6c-2.3 2.1-2.6 2.8-1.5 3.5 2 1.2 2.3 1.2 5.4-1.5 1.5-1.3 2.5-3 2.2-3.7-.4-.9-.6-.7-.6.5-.1 1.1-.4 1.7-.7 1.3-.4-.3-1.5.4-2.4 1.6-1 1.2-2.2 1.9-2.6 1.5-.4-.4.5-1.9 2-3.3 3.6-3.3 2-3.2-1.8.1zM421.6 496.5c-.6 1.6 1.9 3.3 3.1 2.1.4-.3-.1-.6-1-.6-1 0-1.4-.5-1.1-1.5.4-.8.4-1.5.1-1.5-.3 0-.8.7-1.1 1.5zM424 496c0 .5.5 1 1 1 .6 0 1-.5 1-1 0-.6-.4-1-1-1-.5 0-1 .4-1 1zM196 497.5c-1.9 2.2-.8 2.5 1.3.3.9-1 1.3-1.8.8-1.8s-1.4.7-2.1 1.5zM366.4 498.5c-1.5 1.4-2.2 2.5-1.5 2.5.6 0 1.4-.7 1.7-1.5.4-.8 1-1.3 1.4-1 .4.3 1-.2 1.4-1 .8-2.1.1-1.9-3 1zM430.3 497.7c-1.3.8-2.3 2.1-2.3 2.8 0 .7-.7 1.6-1.6 1.9-.8.3-1.3 1-1 1.5.4.5.1 1.2-.4 1.4-.7.4-.6.5.1.3.6-.1 1-.5.9-1-.1-.5.5-1.3 1.4-1.8.9-.5 1.6-1.4 1.6-1.9 0-.6 1-1.9 2.3-3 2.7-2.2 2.1-2.4-1-.2zM180.5 498c-.3.5-.1 1 .4 1 .6 0 1.1-.5 1.1-1 0-.6-.2-1-.4-1-.3 0-.8.4-1.1 1zM188.7 499.1c.4 1.3.8 1.8 1.1 1 .2-.7-.1-1.8-.6-2.3-.8-.8-.9-.4-.5 1.3zM397.5 498c-.3.6.1.7.9.4 1.8-.7 2.1-1.4.7-1.4-.6 0-1.3.4-1.6 1zM177 498.8c0 .5-1.7 2.7-3.8 5-2.2 2.3-3.6 4.2-3.3 4.3.3 0-.3.4-1.4.9-1.5.6-1.6.9-.4.9.9.1 2.7-1.3 4-3.1 1.3-1.7 3.5-4.4 4.7-6 1.3-1.5 1.9-2.8 1.3-2.8-.6 0-1.1.4-1.1.8zM199.3 501.5c-3.1 3.5-3.2 4.5-.2 2.2 1.4-1.1 4.4-5.7 3.7-5.7-.2 0-1.7 1.6-3.5 3.5zM204.5 499c-.5.8-.4 1.1.3.6.6-.3 1.3.3 1.7 1.4.6 2 2.5 1.9 2.5-.2 0-.6-.3-.8-.7-.5-.3.4-1.1-.1-1.8-1-.9-1.3-1.4-1.3-2-.3zM179.8 503.4c-2.1 2.2-3.8 3.6-3.8 2.9 0-.7 1.1-2.4 2.5-3.8s2.1-2.5 1.6-2.5c-.6 0-1.8 1.2-2.8 2.6-1 1.4-2.9 3.9-4.2 5.5-1.3 1.6-2.1 3.2-1.9 3.5.3.2 1.3-.7 2.2-2.2 1-1.4 2-2.4 2.2-2.1.8.7-3.5 7.3-4.3 6.7-.4-.3-.8.2-.9 1 0 .9.1 1 .3.2.3-.7.8-1 1.3-.7.5.3 1.6-.8 2.5-2.5 1.3-2.6 1.9-2.9 3.1-2 .7.7 1.2 1.5 1 1.9-.3.4.5.8 1.6.8 2 .2 2 .1.2-1.2-1.1-.7-1.6-1.6-1.2-2 .4-.4 1.6.1 2.7 1.1 1.5 1.5 1.7 2.2.8 3.5-.7.9-1.9 1.8-2.7 2.2-1.3.4-1.2.6.1.6.9.1 2.4-1 3.2-2.3 1.4-2.1 1.4-2.5-.6-4.4-2-2.1-2-2.3-.4-3.9 1.5-1.6 1.8-1.5 3.7.7 1.1 1.3 2 1.9 2 1.3 0-1.1-3.2-4.3-4.3-4.3-.3 0-1.7 1.2-3.1 2.7-1.4 1.5-2.8 2.4-3.2 2-.4-.4 1.4-2.7 3.9-5.2 2.6-2.5 4.1-4.5 3.4-4.4-.6.1-2.9 2-4.9 4.3zM187.3 501.8c0 1.7.6 3.7 1.4 4.3.8.8 1.3.8 1.3.1 0-.6-.6-1.2-1.2-1.5-.7-.2-1-.8-.6-1.2 1.2-1.2 3.7 1.5 3.2 3.3-.5 1.4-.3 1.4.6-.1 1-1.5.8-2.1-.7-3.2-1-.8-2.1-1.5-2.5-1.5-.3 0-.8-.8-1.1-1.8-.2-.9-.4-.2-.4 1.6zM192 500c-1.3.8-1.3 1.1-.1 2.2.8.8 1.1.8.7.1-.3-.6 0-1.3.6-1.6.7-.2 1.1-.7.8-1-.3-.3-1.2-.2-2 .3zM418.7 499.7c-.3.5.6.9 2 1 1.9.1 2.2-.1 1.2-.8-1.7-1.1-2.6-1.1-3.2-.2zM345.5 501c-.3.5-.1 1 .4 1 .6 0 1.1-.5 1.1-1 0-.6-.2-1-.4-1-.3 0-.8.4-1.1 1zM423.6 501.5c-.9 2.6-.7 3.2.5 1.2.6-1 .9-2.1.6-2.3-.2-.3-.7.2-1.1 1.1z"/><path d="M184.5 502c-.3.5-.1 1 .4 1 .6 0 1.1-.5 1.1-1 0-.6-.2-1-.4-1-.3 0-.8.4-1.1 1zM202.6 502.6c-.3.9-.3 2.1.1 2.7 1.7 2.8 3.9 4.7 5.3 4.6 1 0 .9-.3-.5-.9-1.1-.5-1.6-.9-1.1-.9.4-.1-.2-1-1.5-2-1.3-1.1-2.1-2.3-1.7-2.7.4-.4 1.9.5 3.3 2 3.2 3.5 3.2 2 0-1.7-2.8-3.2-3.1-3.2-3.9-1.1zM337.7 503.3c-1.5 1.7-1.7 1.8-1.3.4.3-1 .2-1.6-.3-1.3-.5.3-.8 1.7-.8 3 0 2.4 0 2.4 3-.7 1.7-1.8 2.7-2.4 2.4-1.5-.4 1-.2 1.8.4 1.8 1.3 0 .8-3.2-.6-3.6-.5-.2-1.8.7-2.8 1.9zM366.4 502.5c-.4.8-1 1.5-1.6 1.5-.5 0-.6-.5-.3-1 .3-.6.1-1-.5-1-.7 0-1 .6-.7 1.2.2.7 1.1 1.3 2 1.3.9 0 2.4 1 3.2 2.3.9 1.2 2 2.2 2.5 2.2s-.2-1.2-1.5-2.6c-1.4-1.5-2.5-3.2-2.5-3.8 0-.6 1.8.9 3.9 3.3 2.3 2.5 4.5 4.1 5.3 3.8.8-.3.6-.6-.6-.6-1.1-.1-1.7-.3-1.4-.6.5-.5-5.9-7.5-6.8-7.5-.3 0-.7.7-1 1.5zM397.7 501.7c-1 1-.8 3.3.3 3.3.5 0 .6-.7.3-1.7-.5-1.2-.3-1.4.7-.8.9.5 1.1.4.6-.3-.8-1.4-1-1.4-1.9-.5zM430.3 502.7c-2.1 1.4-2.2 4.3-.1 4.3.6 0 .4-.8-.3-1.7-1.2-1.5-1.2-1.6.4-1 1 .4 1.6.3 1.2-.2-.3-.5.1-1.1.7-1.4.7-.2 1.1-.7.8-1-.3-.2-1.5.2-2.7 1zM163.6 503.3c.3 1 .9 1.5 1.2 1.2.3-.3 0-1.1-.7-1.8-1-.9-1.1-.8-.5.6zM171 503.2c0 .6-.3.8-.7.5-.3-.4-1.3.2-2 1.3-.8 1.1-1.8 1.8-2.2 1.6-.4-.3-.8.1-.8.9s1.5.2 3.9-1.8c4-3.2 4.4-3.7 2.8-3.7-.5 0-1 .5-1 1.2zM209.5 502.9c-.3.6-.1 1.9.4 2.8.6 1 1.1 1.3 1.1.8.1-.6.5-.1 1 1 .7 1.6.8 1.3.7-1.4-.2-3.4-1.9-5.1-3.2-3.2zm2.5 1.1c0 .5-.4 1-1 1-.5 0-1-.5-1-1 0-.6.5-1 1-1 .6 0 1 .4 1 1zM332.3 503.2c-.4.7-.8 2.4-.9 3.8-.1 1.4 0 1.7.3.7.2-.9.9-1.5 1.4-1.2.5.4.9.1.9-.4 0-.6-.5-1.1-1.1-1.1-.8 0-.8-.5.1-1.5.7-.8 1-1.5.7-1.5-.3 0-.9.6-1.4 1.2zM343.6 503.3c.2.7-.5 2.3-1.6 3.5-1.1 1.2-1.7 2.2-1.2 2.2.4 0 1.8-1.3 3-2.9 1.7-2.3 1.8-3 .7-3.5-.8-.3-1.2 0-.9.7zM349 503.1c0 .5.5.7 1 .4.6-.3 1-.8 1-1.1 0-.2-.4-.4-1-.4-.5 0-1 .5-1 1.1zM384.8 506.1c-1.5 1.6-2.2 2.9-1.5 2.8.7 0 2.2-1.3 3.5-3 3-3.7 1.5-3.7-2 .2zM433.6 504.7c-.6 1.4-.5 1.5.5.6.7-.7 1-1.5.7-1.8-.3-.3-.9.2-1.2 1.2zM198.3 506.4c-.4.7-1.5 1.6-2.3 1.9-.9.4-.5.6 1 .4 1.7-.1 2.8.5 3.7 2.3.8 1.6 1.3 1.9 1.3.9 0-.9-.7-2.2-1.5-2.9-.8-.7-1.5-1.7-1.5-2.3 0-.5.8-.3 1.8.6 2.6 2.4 3.6 2.1 1.2-.3-2.4-2.4-2.7-2.4-3.7-.6zM218 505.7c0 1.9 2.8 2.2 4.2.5 1.1-1.5 1.1-1.5-.3-.5-1.2 1-1.8 1-2.7.1-.8-.8-1.2-.9-1.2-.1zM326 506.2c0 .3.9.6 2 .5 1.1-.1 2-.5 2-.9 0-.3-.9-.6-2-.5-1.1.1-2 .5-2 .9zM362 506c0 .5.5 1 1.1 1 .5 0 .7-.5.4-1-.3-.6-.8-1-1.1-1-.2 0-.4.4-.4 1zM382 506.1c0 .5.5.7 1 .4.6-.3 1-.8 1-1.1 0-.2-.4-.4-1-.4-.5 0-1 .5-1 1.1zM393.3 508.5c-1.6 2.5-2.8 3.3-4 2.8-1.2-.5-1 0 .6 1.6 2.2 2.2 5.9 2.2 4.5-.1-.5-.8-.2-.9 1.2-.4s1.6.4.7-.5c-1.3-1.3-3.7-.3-2.8 1.2.7 1-.8 1.3-1.8.3-.7-.8 3.3-6.4 4.6-6.4.5 0 .3.8-.4 1.7-1.3 1.6-1.2 1.7.4.4 1.3-1 1.5-1.7.6-2.7-.6-.8-1.2-1.4-1.3-1.4 0 0-1.1 1.6-2.3 3.5zM193.6 506.9c-.4.5.3.7 1.4.4 2.3-.6 2.6-1.3.6-1.3-.8 0-1.7.4-2 .9zM223 508c-1.3 1.1-1.9 2-1.3 2 .5 0 2-.9 3.3-2 1.3-1.1 1.9-2 1.3-2-.5 0-2 .9-3.3 2z"/><path d="M337.5 507c-.3.5-.3 1 .2 1 .4 0 .1.5-.7 1.1-1 .7-1.1.9-.2.7.8-.2 1.3-.8 1.2-1.3-.1-.5.7-1.2 1.7-1.6 1.6-.7 1.6-.8.1-.8-.9-.1-2 .3-2.3.9zM365.5 506.9c.3.5 0 1.1-.7 1.4-.7.2-.5.3.4.2 1.9-.3 4.5 2.1 3.4 3.2-.3.3.2 1.5 1.1 2.5 1.5 1.7 1.6 2 0 3.5-1.5 1.6-1.8 1.5-3.7-.7-1.1-1.3-2-1.9-2-1.5 0 .5.7 1.7 1.7 2.7 2.1 2.3 0 2.4-2.3 0-1.7-1.6-1.8-1.6-1.1.1.5 1.3.3 1.7-.5 1.4-.7-.2-1.2-1.3-1-2.3.2-1.7.1-1.7-1 .2-.8 1.3-2.1 2-3.3 1.8-1.1-.2-2.5.3-3.1 1.2-1 1.2-1.7.8-4.5-2.6-1.8-2.2-4-4-4.9-3.9-1 0-.9.3.5.9 1.1.5 1.7.9 1.4.9-.4.1.9 1.7 2.9 3.7 3.2 3.2 3.7 3.4 4.8 2 1.2-1.7 2.9-2.2 1.9-.6-.3.5-.1 1 .4 1 .6 0 1.1-.4 1.1-.8s.9-.8 2-.9c1.7-.2 1.5.4-1.5 3.2-3.5 3.5-4.4 5.5-2.4 5.5.5 0 .8-.4.4-.9-.3-.5.5-1.7 1.7-2.5 1.2-.9 1.8-1.6 1.3-1.6-.6 0 .4-.9 2-2 4.9-3.3 5.3-2.3.7 2-3.9 3.7-5.5 5.9-3.2 4.5.6-.3 1-.1 1 .4 0 .6.5 1.1 1.2 1.1.9 0 .9-.3.1-1.1-1.4-1.4 4.4-8.2 6.4-7.4.8.2 1.1 0 .8-.5-.3-.6-.2-1 .4-1 .5 0 2.6-1.7 4.5-3.8 2-2 3.6-3.2 3.6-2.5 0 .7-1.8 3.1-4 5.4-2.2 2.3-4 4.4-4 4.7 0 .7 3.9-2.7 6.2-5.3.9-1.1 1.7-1.5 1.8-.9 0 .5-.5 1.5-1.2 2.2-.9.9-.9 1.2 0 1.2.7 0 1.2-.5 1.2-1.1 0-.5.5-.7 1-.4.6.4.8 1.1.5 1.6-.4.5-.1.9.4.9 1.5 0 1.3-1.1-.4-3.4-2.5-3.3-1.6-4.3 1-1.1 1.4 1.6 2.5 2.6 2.5 2.1 0-.4-1.1-2.2-2.5-3.8-1.4-1.7-2.3-3.3-2-3.6.3-.4 1.9.9 3.5 2.8 2.4 2.8 3.2 3.2 5 2.4l2.1-.9-2.3-2.5c-1.3-1.3-2.2-2.8-2-3.2.1-.5-.2-.8-.8-.8-1.7 0-1.1 2.5 1 3.8 2.4 1.5 2.6 3.2.3 3.2-.9 0-1.4-.3-1-.6.9-.9-4.5-5.1-6.5-5.1-.9 0-1.5.4-1.2.9.3.4 0 .8-.5.8-.6 0-1.1-.7-1.1-1.5s-.5-1.5-1-1.5c-.7 0-.7.7 0 2.1 1.5 2.6.6 3.6-1.4 1.6-.8-.8-1.3-1.7-1-2 .7-.7-2.8-5.6-3.9-5.7-.5 0-.6.4-.2.9zM427.1 507.6c0 1.1.3 1.4.6.6.3-.7.2-1.6-.1-1.9-.3-.4-.6.2-.5 1.3zM183 507.7c0 .5.9 1.5 1.9 2.3 1.1.7 1.8 1.7 1.5 2.2-.3.4-.1.8.5.8 2.1 0 1.7-1.6-1-3.8-1.6-1.3-2.9-2-2.9-1.5zM215 508c-1.3.8-1.2 1 .3 1 .9 0 1.7-.5 1.7-1 0-1.2-.1-1.2-2 0zM230.3 507.7c.4.6 0 1.6-.8 2.3-1.7 1.4-2 3-.4 3 .5 0 .7-.5.4-1-.3-.6-.2-1 .3-1 1.5 0 2.3-2.8 1-3.6-.6-.4-.8-.3-.5.3zM317.8 509.1c-.9 1.2-1.4 2.9-1.1 3.8.4.9.3 1.3-.2.9-.4-.4-1.6.3-2.5 1.5-1 1.2-2.1 1.9-2.5 1.5-.4-.4 0-1.4.8-2.3 1.8-1.7 1.3-4-1-4.9-.9-.4-1.7.1-2 1.4-.3 1.1-.9 2-1.4 2-.5 0-.9.5-.9 1 0 .6.7.6 1.9-.2 1.1-.7 1.7-1.8 1.3-2.7-.5-1.4-.4-1.4 1.2-.1 1.7 1.3 1.7 1.5-.5 3.3-1.9 1.5-2 2-.8 2.8 2 1.2 2.3 1.2 5.4-1.5 1.5-1.3 2.5-2.8 2.1-3.4-.3-.5.1-1.5.9-2.2 1.2-1 1.8-1 3 0 .8.7 1.3 1.5 1.1 1.9-.3.4.4.7 1.4.8 1.5.1 1.3-.4-1.1-2.8-1.5-1.6-3-2.9-3.1-2.9-.2 0-1.1 1-2 2.1zM324.2 509c.7 1 1.4 1.8 1.5 1.6.6-.6-.9-3.6-1.8-3.6-.5 0-.4.9.3 2z"/><path d="M349.3 510.1c-2.5 3-2.8 3.9-1.2 3.9.5 0 .8-.4.5-.8-.3-.5.4-1.6 1.5-2.5 2.3-2 3-2.1 2.8-.5-.3 2.5.1 3.8 1.2 3.8.8 0 .8-.5-.1-1.5-.8-1-.9-1.5-.2-1.5.6 0 1.6.8 2.1 1.7.8 1.4 1 1.5 1 .3 0-.8-1.2-2.4-2.7-3.6l-2.7-2.1-2.2 2.8zM431.5 508.1c-.3.4.2.6 1 .5 2.1-.3 2.8-1.3 1-1.3-.9 0-1.8.4-2 .8zM189 509c0 .5.5 1 1.1 1 .5 0 .7-.5.4-1-.3-.6-.8-1-1.1-1-.2 0-.4.4-.4 1zM210 508.9c0 .6.4 1.3 1 1.6.6.3.7-.1.4-.9-.7-1.8-1.4-2.1-1.4-.7z"/><path d="M225.1 510c-1.3 1.1-1.8 2-1.1 2s-.5 1.8-2.8 4c-2.2 2.2-4.6 4-5.2 4-.7 0-2.7-1.5-4.6-3.4-1.8-1.8-3.6-3.1-3.9-2.8-.3.3-.5-.3-.6-1.4 0-1-.3-1.4-.6-.7-.2.7 1.4 3 3.6 5.2 2.3 2.2 4.1 3.7 4.1 3.3.1-.4.8.4 1.6 1.8s1.3 1.7 1 .8c-.3-1 .4-2.2 1.7-3.1 3.6-2.4 8.8-7.7 7.5-7.7-.6 0-.1-.9 1.2-2 3-2.6 1.2-2.6-1.9 0zM314.5 509.1c-.4.6-.5 1.2-.2 1.5.2.3.7-.2 1-1.1.7-1.7.1-2-.8-.4zM327.8 508.7c.7.3 1.6.2 1.9-.1.4-.3-.2-.6-1.3-.5-1.1 0-1.4.3-.6.6zM333 509c0 .5.5 1 1.1 1 .5 0 .7-.5.4-1-.3-.6-.8-1-1.1-1-.2 0-.4.4-.4 1zM378 508.9c0 .6.4 1.3 1 1.6.6.3.7-.1.4-.9-.7-1.8-1.4-2.1-1.4-.7zM192.5 510c.3.5.8 1 1.1 1 .2 0 .4-.5.4-1 0-.6-.5-1-1.1-1-.5 0-.7.4-.4 1z"/><path d="M218 510.1c0 .5.5.7 1 .4.6-.3 1-.8 1-1.1 0-.2-.4-.4-1-.4-.5 0-1 .5-1 1.1zM239.2 510.1c.3.8-1.1 3.1-3.3 5.4-4 4.1-4.7 5.5-2.7 5.5.6 0 .9-.3.5-.6-.3-.3 1.2-2.4 3.4-4.7 4.2-4.5 4.5-5.2 2.7-6.3-.7-.5-.9-.2-.6.7zM360.5 510c.3.5.8 1 1.1 1 .2 0 .4-.5.4-1 0-.6-.5-1-1.1-1-.5 0-.7.4-.4 1zM386 510.1c0 .5.5.7 1 .4.6-.3 1-.8 1-1.1 0-.2-.4-.4-1-.4-.5 0-1 .5-1 1.1zM397.5 510c-.2.3.5.7 1.6.7 1 .1 1.9-.2 1.9-.6 0-.9-2.9-1-3.5-.1zM166.4 511.4c2.4 1.9 3.6 2 3.6.4 0-.6-.3-.8-.6-.5-.4.3-1.6.2-2.8-.4-2-1-2-1-.2.5zM194.2 512c-.7 1.1-.8 2-.3 2 .9 0 2.4-3 1.8-3.6-.1-.2-.8.6-1.5 1.6zM197.6 511.5c.4.8 1 1.5 1.5 1.5.4 0 .6-.7.3-1.5-.4-.8-1-1.5-1.5-1.5-.4 0-.6.7-.3 1.5zM203.3 512c-.1 1.1.2 2 .5 2 .4 0 .8-.9.9-2 .1-1.1-.2-2-.5-2-.4 0-.8.9-.9 2zM213 511.3c0 .7.9 1.8 2 2.5s2 .8 2 .3-.7-1.2-1.6-1.5c-.8-.3-1.2-1-.9-1.6.3-.5.1-1-.4-1-.6 0-1.1.6-1.1 1.3zM327.3 511c.5 1.8-1.1 4.4-3.3 5.2-.8.3 0 .6 1.8.5 1.7 0 3.7-.6 4.3-1.4.8-.8.8-1.3.1-1.3-.6 0-1.2.6-1.5 1.2-.2.7-.8 1-1.2.6-.4-.4-.3-1.3.3-2.1.8-.9.8-1.7 0-2.7-.8-1.3-.9-1.3-.5 0zM329.6 511.5c.7 1.8 2 1.9 3 .3.4-.7.3-.8-.4-.4s-1.2.2-1.2-.3c0-.6-.4-1.1-1-1.1-.5 0-.7.7-.4 1.5zM339 511.1c0 .5-.4.8-.8.5-.5-.3-.9.1-.9.9 0 2.1 1 1.9 2.5-.5.7-1.2.8-2 .2-2-.5 0-1 .5-1 1.1zM363.1 511.3c0 1.2 5.9 6.4 5.9 5.2 0-.3-1.3-1.9-3-3.5-1.6-1.6-3-2.4-2.9-1.7zM365.5 511c.3.5.8 1 1.1 1 .2 0 .4-.5.4-1 0-.6-.5-1-1.1-1-.5 0-.7.4-.4 1zM175.6 512.5c-.3.8-.1 1.5.4 1.5.6 0 1-.7 1-1.5s-.2-1.5-.4-1.5-.6.7-1 1.5zM190.6 512.5c.4.8.8 1.5 1 1.5.2 0 .4-.7.4-1.5s-.4-1.5-1-1.5c-.5 0-.7.7-.4 1.5z"/><path d="M211.6 514.5c1.9 1.9 4 3.5 4.4 3.5 1.2 0 6-4.9 6-6 0-.6-.5-1-1.1-1-.5 0-.7.5-.3 1.2.5.7.2.9-.9.5s-1.4-.2-1.1.7c.3.7-.2 1.8-1 2.5-1.3 1.1-2.1.7-4.8-1.8-4.6-4.3-5.7-3.9-1.2.4zM232.3 515.8c-3.5 5-3.9 6.2-2.3 6.2.6 0 .9-.3.9-.8-.3-1.7.2-2.9 2.6-5.6 2.1-2.5 3.2-4.6 2.3-4.6-.2 0-1.8 2.1-3.5 4.8zM251 512.5c0 .8.4 1.5 1 1.5.5 0 .7-.7.4-1.5-.4-.8-.8-1.5-1-1.5-.2 0-.4.7-.4 1.5zM319.3 512.5c0 .8.4 1.5.9 1.5.4 0 .8-.7.8-1.5s-.4-1.5-.8-1.5c-.5 0-.9.7-.9 1.5zM334.6 512.5c.4.8.8 1.5 1 1.5.2 0 .4-.7.4-1.5s-.4-1.5-1-1.5c-.5 0-.7.7-.4 1.5zM241.5 513c-.3.5-.1 1 .4 1 .6 0 1.1-.5 1.1-1 0-.6-.2-1-.4-1-.3 0-.8.4-1.1 1zM254 512.3c0 .4 2.5 3.2 5.6 6.3 3.1 3 5.4 4.9 5.1 4-.3-.8.3-2.6 1.4-3.9 2.5-3.3 2.5-4.7-.1-1.7-1.1 1.3-2 2.8-2 3.3 0 .6-1.8-.8-4-3.1-2.2-2.2-4-3.7-4-3.4 0 .4-.5 0-1-.8s-1-1.2-1-.7zM293 513c0 .5.5 1 1.1 1 .5 0 .7-.5.4-1-.3-.6-.8-1-1.1-1-.2 0-.4.4-.4 1zM350 512.7c0 .6.7 1.6 1.5 2.3.8.7 1.5 1.7 1.5 2.3 0 .5-.8.3-1.8-.6-2.6-2.4-3.6-2.1-1.2.3 1.6 1.6 2.5 1.8 3.8 1.1.9-.6 1.3-1.1.7-1.1-.5-.1-.1-.6 1-1.1 1.9-.9 1.8-.9-.3-.5-1.5.3-2.7-.3-3.7-1.7-.8-1.2-1.5-1.6-1.5-1zM386 512.5c0 .2.8 1.1 1.7 2.1 1.6 1.6 1.6 1.8-.7 3.6-1.3 1-2.9 1.7-3.7 1.4-.7-.3-1.3-.1-1.3.4 0 1.6 2.6 1.1 5.2-.9 1.5-1.2 3.4-1.8 4.9-1.5l2.4.5-2.3-1c-1.2-.6-2.5-1.7-2.8-2.5-.5-1.3-3.4-3.1-3.4-2.1zM165 514c-.9.6-1 1-.3 1 .6 0 1.5-.5 1.8-1 .8-1.2.4-1.2-1.5 0zM188.5 514c-.3.5-.1 1 .4 1 .6 0 1.1-.5 1.1-1 0-.6-.2-1-.4-1-.3 0-.8.4-1.1 1zM196.6 514.3c.3 1 .9 1.5 1.2 1.2.3-.3 0-1.1-.7-1.8-1-.9-1.1-.8-.5.6zM248.6 513.9c-.4.6-.2 1.1.3 1.1.6 0 1 .5.9 1.2-.2.6.6 1.3 1.7 1.4 1.5.2 1.6.2.2-.2-.9-.3-1.5-.9-1.3-1.3.3-.4.1-1.3-.3-2-.6-.9-1.1-1-1.5-.2z"/><path d="M262.6 514.5c-2 1.5-2 2.1-.2 2.8 1.1.4 1.3.1.9-1-.4-1-.2-1.4.4-1 .6.4 1.6.1 2.2-.6 1.4-1.8-1-1.9-3.3-.2zM277.1 515.6c2 2.1 2 2.4.5 4.6-.9 1.2-1.6 1.8-1.6 1.3s-.7 0-1.5 1.2c-.9 1.3-2.2 2-3 1.7-.8-.4-1.5-.4-1.5-.1 0 .3.7.8 1.5 1.1 1 .3 2.9-.8 5.1-3.1 2.6-2.7 3.5-3.1 3.2-1.7-.2 1.4-3.9 5.4-6.6 7-.2.1 1.6 2 3.8 4.2l4.1 4-3.8 4c-3.3 3.4-3.6 4.2-2.4 5.3 1.3 1.1 1.4 1.1.8-.4-.3-.9-.3-1.7.1-1.7s1.8-1.6 3-3.4c1.7-2.5 2.9-3.3 4-2.8 1 .3-.5-1.5-3.3-4.2l-5-4.7 2.4-2c1.3-1.1 2.7-1.7 3-1.3.3.3-.2 1.2-1.2 1.9-1.8 1.3-1.8 1.4.2 3.4 1.2 1.2 2.1 1.7 2.1 1.3 0-.4-.5-1.3-1.2-2-.8-.8-.8-1.5 0-2.4.6-.8.9-2.3.8-3.3-.2-1.2.5-2.5 1.8-3.3 1.3-.8 1.4-1.1.4-.8-1.5.4-5.5-3.9-5.1-5.5.1-.3-.5-.6-1.3-.6-1.1 0-.9.6.7 2.3z"/><path d="M279.1 513.5c0 1.3 2.4 4.5 3.3 4.5.4 0 .5-.4.2-.9-.4-.5-.3-1.1.1-1.4.5-.2.2-.2-.4-.1-.7.2-1.7-.5-2.2-1.4-.6-.9-1-1.3-1-.7zM290.3 514.5c-.3.9-.3 1.8-.1 2.1.3.3.8-.4 1.1-1.6.6-2.3-.1-2.7-1-.5zM298 514c0 .5.5 1 1.1 1 .5 0 .7-.5.4-1-.3-.6-.8-1-1.1-1-.2 0-.4.4-.4 1zM332.5 514c-.3.5-.1 1 .4 1 .6 0 1.1-.5 1.1-1 0-.6-.2-1-.4-1-.3 0-.8.4-1.1 1zM340.7 515.1c.4 1.3.8 1.8 1.1 1 .2-.7-.1-1.8-.6-2.3-.8-.8-.9-.4-.5 1.3zM358 514c0 .5.5 1 1.1 1 .5 0 .7-.5.4-1-.3-.6-.8-1-1.1-1-.2 0-.4.4-.4 1zM167.9 514.2c-.6 1.2-.5 4.6.2 4.3.4-.3.7-1.4.6-2.5-.1-1.8-.5-2.5-.8-1.8zM177.6 514.9c-.4.5.3.7 1.4.4 2.3-.6 2.6-1.3.6-1.3-.8 0-1.7.4-2 .9zM183.3 516.5c-1.2 1.4-1.7 2.7-1.2 3.1.5.3.9.1.9-.4 0-.4.9-1.8 2-3 1.2-1.2 1.7-2.2 1.3-2.2-.4 0-1.8 1.1-3 2.5zM200.5 515c1.1.5 1.7.9 1.3.9-.3.1.8 1.6 2.5 3.4 1.8 1.8 3.5 3.1 3.8 3 .4-.2.9.4 1.3 1.2.3.8 1 1.5 1.6 1.5.5 0-1.5-2.5-4.5-5.5s-6-5.5-6.7-5.4c-.7 0-.4.4.7.9zM225.9 514.7c-.1.5-.1 1-.1 1.4 0 .3-1.7 1.6-3.9 2.9-2.1 1.4-3.9 2.8-3.9 3.3 0 .4.4.6.9.2.5-.3 1.1 0 1.4.7.2.7.3.5.2-.4-.2-1.1 1-2.6 3.1-3.9 1.9-1.1 3.2-2.4 2.9-2.9-.3-.5.3-1.1 1.2-1.3 1.7-.4 1.7-.5.1-.6-1 0-1.9.2-1.9.6zM245 515.1c0 .5.5.7 1 .4.6-.3 1-.8 1-1.1 0-.2-.4-.4-1-.4-.5 0-1 .5-1 1.1zM285.6 514.9c-.4.5.3.7 1.4.4 2.3-.6 2.6-1.3.6-1.3-.8 0-1.7.4-2 .9zM301.5 514.9c.3.5 0 1.1-.7 1.4-.7.2-.5.3.5.1.9-.1 2 .4 2.5 1.1 2.2 3.7 6.8 8.5 8.1 8.4 1.2 0 1.1-.3-.4-.9-1.1-.5-1.6-.9-1.2-.9.5-.1-.4-1.2-2-2.5s-3.5-3.6-4.2-5c-.8-1.4-1.8-2.6-2.3-2.6-.5 0-.7.4-.3.9zM321.6 514.9c-.4.5.3.7 1.4.4 2.3-.6 2.6-1.3.6-1.3-.8 0-1.7.4-2 .9zM361.5 515c.3.5.8 1 1.1 1 .2 0 .4-.5.4-1 0-.6-.5-1-1.1-1-.5 0-.7.4-.4 1zM395.5 515.1c-.4.6-.5 1.2-.2 1.5.2.3.7-.2 1-1.1.7-1.7.1-2-.8-.4zM172.5 517c-1 1.1-2.6 2.2-3.6 2.5-1.1.4-1.9 1.1-1.9 1.6 0 .6 2-.4 4.5-2.2 2.5-1.8 4.5-3.4 4.5-3.6 0-1-1.9 0-3.5 1.7zM189.2 518.1c-3 3.8-2 3.7 1.8-.1 1.6-1.7 2.4-3 1.7-2.9-.7 0-2.2 1.3-3.5 3z"/><path d="M195.4 516.7c.4 2.2-1.9 5.1-3.1 3.9-.3-.3-1.5.2-2.5 1.1-1.7 1.5-2 1.6-3.5 0-1.6-1.5-1.5-1.8.7-3.7 1.3-1.1 1.9-2 1.3-2-1.1 0-4.3 3.2-4.3 4.3 0 .3 1.2 1.7 2.7 3.1 1.5 1.4 2.4 2.8 2 3.2-.4.4-2.7-1.4-5.2-3.9-2.5-2.6-4.5-4.2-4.5-3.7 0 .6 1.8 2.6 4 4.6 3.7 3.3 4.4 5.4 1.9 5.4-.6 0-.8-.3-.6-.8.3-.4-.1-1.3-.9-2-1.8-1.7-1.8-.1 0 2.4 1.2 1.5 1.7 1.7 2.7.6.7-.6 1.8-1.2 2.4-1.2.5.1-.1 1-1.5 2.1l-2.4 2.1-2.2-2.6c-1.2-1.4-2.1-3.3-2-4.3.2-1 .1-1.2-.1-.5-.3.7-.9 1-1.4.7-.5-.4-.9-.1-.9.4 0 .6.5 1.1 1.2 1.1.6 0 .9.3.5.6-.6.6.3 1.7 3.5 4.3 1.5 1.1 2.2 1 4.9-1.3 1.7-1.5 3.4-2.4 3.7-2.1.4.3-.8 1.8-2.6 3.3-3.1 2.7-4.2 5.2-2.2 5.2.5 0 .7-.8.3-1.8-.3-.9-.3-1.4.2-1 1 .9 5.2-4.3 5.2-6.5 0-1.2-.4-1.4-1.1-.7-.5.5-1.4 1-1.9 1-1.3 0 1.3-3 2.7-3 .6 0 2.4-1.2 3.9-2.5 2.2-2 2.6-2.9 1.8-4.2-.6-1-1.1-1.4-1.1-.8-.1.5-.6.1-1.1-1-.9-1.9-.9-1.9-.5.2zm1.5 3.9c-1.6 1.9-6.9 4.7-7.6 4-.8-.8 2.1-3.3 3.3-2.9.6.2 1.7-.3 2.4-1.2.7-.8 1.7-1.5 2.2-1.5.6 0 .5.7-.3 1.6zM207.2 518c1.8 1.6 3.6 3 4.1 3 .4 0-.7-1.4-2.5-3-1.8-1.7-3.6-3-4.1-3-.4 0 .7 1.3 2.5 3zM237.4 517.8l-2.1 2.7 2.3 1.8c1.9 1.4 2.3 1.5 1.8.2-.3-.8-1-1.5-1.5-1.5s-.9-.5-.9-1c0-.6.6-1 1.3-.9 2.4.3 3.7-.1 3.7-1.2 0-.8-.5-.8-1.5.1-1 .8-1.5.9-1.5.2 0-.6.8-1.6 1.8-2.1 1.3-.8 1.4-1 .2-1-.8 0-2.5 1.2-3.6 2.7z"/><path d="M243.3 516.7c.1 1.2-.7 2.9-1.8 3.8-1.5 1.3-1.3 1.2 1.3-.1 1.7-1 3.2-2.2 3.2-2.7 0-.4-.4-.6-.9-.2-.5.3-1.2-.3-1.5-1.2-.3-1.3-.4-1.1-.3.4zM255 518c3.7 3.3 6.1 4.1 3.3 1.2-1-1.1-2.1-1.7-2.4-1.5-.4.1-.9-.4-1.3-1.2-.3-.8-1.1-1.5-1.7-1.5-.7 0 .3 1.3 2.1 3zM292.1 516c-.1.8-1 2.1-2.2 2.8-1.9 1.2-2 1.1-1.4-.7.3-1.2.3-2.1-.2-2.1-1.1 0-1.4 3.8-.5 4.4 1.3.8 5.5-3.1 4.9-4.5-.4-1.1-.6-1.1-.6.1zM299.6 520.6c3 3 5.4 6.1 5.4 6.7 0 .7-1.9-.7-4.1-3.1-2.2-2.3-4.4-4.2-4.8-4.2-1 0-4.1 3.4-4.1 4.5 0 .4.9-.2 2-1.5 1.9-2.2 2.2-2.3 3.7-.7 1.6 1.5 1.5 1.8 0 3.5-.9 1-1.4 2.2-1.1 2.5 1.1 1.1-1.5 3.5-3.4 3.2-.9-.1-1.1 0-.4.2.7.3 1 .9.7 1.4-.4.5-.3.9.2.9 1.1-.1 4.6-5 3.9-5.7-.5-.5 1.8-3.3 2.8-3.3 1.2 0 .5 1.8-2.5 6.3-2.1 3.2-3.5 4.4-4.6 4-1.8-.7 2.8 4.1 7.2 7.5 1.6 1.3 3 3.1 3 3.9 0 .9.6 1.7 1.3 1.9.7.1.8 0 .2-.3-.5-.2-1-.9-1-1.4 0-.6.4-.8.9-.5.5.3 1.1-.1 1.4-.9.4-.9.1-1.2-.8-.9-1.1.4-1.3-.1-.9-2.3.5-2.7.5-2.7-1-.8-1.5 2-1.6 1.9-5-1.6l-3.5-3.6 2.9-3.4c1.6-1.9 2.9-4 3-4.7 0-.6.5-1.2 1.1-1.2.5 0 .7.5.3 1.2-.4.7-.3.8.4.4 2.1-1.3 1.3.3-1.8 3.4-3.3 3.3-3.4 3.8-2 6 .7 1.2 1.3.9 3-1.3 1.2-1.5 2.6-2.5 3.1-2.2.5.4.9.1.9-.4 0-1.7-1.4-1.3-3.9 1-1.2 1.2-2.5 1.8-2.9 1.4-.4-.4.4-1.5 1.7-2.6 1.3-1 2-1.9 1.7-1.9-.3 0 .2-.8 1.2-1.8.9-1.1 2.2-1.6 2.7-1.3.6.3.2-.7-.7-2.2-2.1-3-2.4-4.7-.6-2.9 2.4 2.4 2.6 1.1.3-1.4-1.4-1.5-2.5-3.1-2.5-3.5 0-.5-.5-.9-1.2-.9-.6 0-.3.9.7 2s1.6 2.2 1.3 2.5c-.3.3-2.2-1.3-4.2-3.5s-4-4-4.5-4 1.5 2.5 4.5 5.6zM315.7 517.5c-2.2 2-2.6 2.9-1.8 4.2.6 1 1.1 1.3 1.1.8.1-.6.6-.1 1.1 1 .9 1.9.9 1.8.5-.3-.4-2.3 2.9-5.6 4.6-4.6.4.3.8 0 .8-.5 0-1.6-1.4-1.3-4.3.9-4 3.1-4.6 2.3-.7-1 1.9-1.7 3-3 2.5-3-.6 0-2.3 1.2-3.8 2.5zM333.2 518.1c-3 3.8-2 3.7 1.8-.1 1.6-1.7 2.4-3 1.7-2.9-.7 0-2.2 1.3-3.5 3z"/><path d="M339.4 516.7c.4 2.2-1.9 5.1-3.1 3.9-.3-.3-1.5.2-2.5 1.1-1.7 1.5-2 1.6-3.5 0-1.6-1.5-1.5-1.8.7-3.7 1.3-1.1 1.9-2 1.3-2-1.1 0-4.3 3.2-4.3 4.3 0 .3 1.2 1.7 2.7 3.1 1.5 1.4 2.4 2.8 2 3.2-.4.4-2.7-1.4-5.2-3.9-2.5-2.6-4.5-4.2-4.5-3.7s1.9 2.7 4.3 4.9c2.3 2.2 3.7 4.1 3 4.1-.7 0-2.4-1.1-3.8-2.5-2.8-2.8-3.5-2.3-.8.7.9 1 1.1 1.8.6 1.8-.6 0-1.6-.7-2.3-1.5-.7-.9-1.5-1.3-1.8-1-.3.3.2 1.1 1.2 1.8 1.6 1.2 1.5 1.4-.8 3.5-1.5 1.2-2.6 1.7-2.6 1.1 0-.5-1.1.3-2.4 1.8-1.3 1.5-2.2 3-2 3.2.2.2 1.3-.6 2.4-1.9 1.1-1.3 2-1.8 2-1.1 0 .6 1.4-.3 3-2.1l3-3.3 2.9 3.2c1.6 1.7 3.2 2.9 3.5 2.6.3-.4.6.2.7 1.3 0 1.2.3 1.4.6.5.3-.7-1.1-2.8-3.3-4.7-2.2-1.8-3.4-3.4-2.8-3.4 1.8 0 8.4 5.6 7.6 6.5-.4.5-.1.5.6.1 1.9-1.1 1.5-1.9-1.9-3.9-1.8-1-2.9-2-2.6-2.3.3-.3 1.8.3 3.3 1.3 1.6 1 2.6 1.3 2.3.8-.3-.6.2-1.8 1.3-2.8 1-.9 1.8-1.4 1.8-1.1 0 .3.9-.4 1.9-1.7 1.1-1.3 2.2-2.1 2.6-1.7.4.4-.2 1.7-1.4 2.9-2.3 2.5-2.7 3.9-1 3.9.5 0 .8-.4.4-.9-.3-.5.7-1.9 2.2-3.1 2.2-1.7 2.5-2.3 1.3-3-2.2-1.4-2.7-1.3-6 2-3.1 3.1-4.7 3.9-3.4 1.8.4-.7.3-.8-.5-.4-.6.4-.8 1.2-.5 1.8.4.6.1.9-.5.7-2.1-.7-1.7-2.3.7-3.4 1.2-.5 2.2-1.3 2.2-1.8 0-.4-.9-.3-2.1.3-1.1.7-2.3.9-2.6.6-.8-.8 2.1-3.3 3.3-2.9.6.2 1.7-.3 2.4-1.2.7-.8 1.7-1.5 2.3-1.5.5 0 .3.8-.6 1.8-2.5 2.7-2.1 3.6.5 1 1.8-1.8 1.9-2.3.6-3.2-.8-.6-1.8-1.8-2.1-2.6-.4-.9-.6-.6-.3.7zM199 516.9c0 .5 1.4 2.3 3.2 4l3.2 3.1-4.2 3.9c-2.3 2.2-4.7 4.2-5.4 4.5-.7.4-.3.4 1 .2 1.3-.3 2.5.1 2.8.8.3.9 2.1-.3 5-3.2 2.4-2.5 4.4-4 4.4-3.2 0 .7-2.2 3.5-4.9 6.1-5.7 5.5-7.6 8.5-6.1 9.4.6.4 1.8.1 2.7-.6 1.3-1.1 1.8-1 3.4 1 1 1.3 1.7 2.7 1.4 3.1-.3.5 0 1.2.6 1.6.8.5.9.3.4-.6-.6-.9-.4-1.2.6-.8 1 .4 1.5-.1 1.6-1.6 0-1.1-.1-1.5-.4-.9-.3.7-1 1.3-1.6 1.3-.5 0-.8-.3-.4-.6.3-.4-.4-1.5-1.6-2.4-1.2-1-1.9-2.1-1.5-2.5.4-.4 1.4 0 2.3.9 1.9 1.8 3.5 2.1 3.5.5 0-.5-.4-.8-.9-.4-.5.3-1.6-.4-2.5-1.6l-1.5-2.2-2.5 2.9c-1.3 1.6-2.7 2.6-3 2.3-.4-.3 1-2.5 3-4.8 2.7-3.1 4.2-4 5.6-3.5 1.3.4 2.7-.2 4.1-1.7 1.8-1.9 1.9-2.2.3-1.6-1 .4-2 .7-2.2.7-.3 0-.2.4.1 1 .3.5-.1 1-.9 1-2.2 0-2-1.6.4-3.3 1.7-1.2 1.8-1.6.6-3.2-1.3-1.7-1.6-1.6-5.1 2.3-3.6 3.9-5.5 4.5-5.5 2 0-.6.3-.9.6-.6.6.7 6.4-5 6.4-6.3 0-.4-1.6-2.4-3.5-4.3-1.9-2-3.5-3.2-3.5-2.7zM247.4 517.2c.3 1.1-.7 2.4-3 4-1.9 1.2-3.7 3.1-4 4-.5 1.6-.8 1.5-3-.7-1.4-1.4-2.9-2.5-3.4-2.5s.7 1.6 2.8 3.5c4.5 4.2 3.1 4.7-1.8.5-1.9-1.6-3.9-3-4.4-3-1 0 5.9 5.6 8.8 7.2 1.3.7 1.6.7 1.2-.1-.4-.6-.3-1.1.2-1.1s2.3-1.4 4-3.1l3-3.1 2.6 2.3c1.4 1.2 2.3 2.6 2 3.1-.3.4 0 .8.5.8 1.8 0 1.2-1.8-1.4-4.5-3.3-3.2-3.9-3.2-7.5.7-1.7 1.7-3.3 2.8-3.6 2.5-.8-.8 6-7.7 7.6-7.7.7 0 2.7 1.5 4.6 3.4 1.8 1.8 3.6 3.1 3.9 2.8.3-.3.5 0 .5.6 0 .7-.4 1.2-.9 1.2s.9 1.8 3.1 4c2.3 2.2 4.4 4 4.8 4 .9 0 4-3.4 4-4.5 0-.4-.9.2-2 1.5-2 2.3-2.1 2.3-3.8.6-1.6-1.6-1.6-1.9 1-4.1 2.3-2 2.5-2.4.9-2.2-1.1.1-1.7.5-1.5.9.3.4 0 .8-.5.8-.6 0-1.1-.7-1.1-1.5s-.5-1.5-1-1.5c-.7 0-.7.7 0 2.1 1.5 2.6.6 3.6-1.4 1.6-.8-.8-1.3-1.7-.9-2 .3-.3-1.3-2.4-3.6-4.6-2.3-2.2-4.1-3.7-4.1-3.3-.1.4-.8-.4-1.6-1.8s-1.3-1.8-1-.8z"/><path d="M343 516.9c0 .5 1.5 2.3 3.3 4.1l3.2 3.2-2.7 2.2c-1.6 1.2-2.8 2.5-2.8 3 0 .4.7.1 1.5-.6s2.1-1.9 3-2.6c2.2-1.8 1.9-2.6-2-6.6-1.9-2-3.5-3.2-3.5-2.7zM357 517c-.9.6-1 1-.3 1 .6 0 1.5-.5 1.8-1 .8-1.2.4-1.2-1.5 0zM174.6 518.3c-1.3 1-1.6 1.8-1 3 .8 1.4 1.1 1.4 2.9 0 2-1.5 2-1.5-.2-.8-1.4.4-2.3.2-2.3-.4 0-1 1.4-1.5 3.3-1.2.4 0 .7-.4.7-.9 0-1.4-1.3-1.3-3.4.3zM192.5 518c-.3.5-.1 1 .4 1 .6 0 1.1-.5 1.1-1 0-.6-.2-1-.4-1-.3 0-.8.4-1.1 1zM268.2 518.3c-.7.8-.9 1.7-.5 2 .3.4.1.7-.5.7-.7 0-1.2.5-1.2 1.1 0 .5.4.8.9.4.5-.3 1.2.3 1.5 1.2.2 1 .3.4.1-1.4-.2-1.8.2-3.4.8-3.6.7-.2.9-.7.6-1.1-.3-.4-1.1 0-1.7.7zM274.2 519c-1.2 1.1-2.6 2-3.2 2-.5 0-1 .4-1 1 0 1.5 2 .7 4.7-1.9 3-2.8 2.5-3.9-.5-1.1zM284.5 518c.3.5.8 1 1.1 1 .2 0 .4-.5.4-1 0-.6-.5-1-1.1-1-.5 0-.7.4-.4 1zM292.3 519.5c-1.3 1.2-2.3 2.6-2.3 3.1s.4.4.8-.2c.4-.5 1.7-1.7 3-2.6 1.3-.9 2-1.8 1.5-2-.4-.2-1.8.5-3 1.7zM336.5 518c-.3.5-.1 1 .4 1 .6 0 1.1-.5 1.1-1 0-.6-.2-1-.4-1-.3 0-.8.4-1.1 1zM227 519.5c0 .8.2 1.5.4 1.5s.6-.7 1-1.5c.3-.8.1-1.5-.4-1.5-.6 0-1 .7-1 1.5zM325.5 519c.3.5.8 1 1.1 1 .2 0 .4-.5.4-1 0-.6-.5-1-1.1-1-.5 0-.7.4-.4 1zM223.6 520.6c-1.1.7-1.8 1.6-1.5 1.8.2.2 1.3-.2 2.3-1 1.1-.7 1.8-1.6 1.5-1.8-.2-.2-1.3.2-2.3 1zM253.8 520.8c.9 1.1 2 1.7 2.3 1.5.4-.1.9.4 1.3 1.2.3.8 1.1 1.5 1.7 1.5.7 0-.3-1.4-2.1-3-3.7-3.3-6.1-4.1-3.2-1.2zM389.2 520.2c.2.6 1 1.3 1.6 1.4.7.1.8 0 .2-.3-.5-.2-.8-.9-.4-1.4.3-.5 0-.9-.6-.9-.7 0-1 .5-.8 1.2zM285 521c0 .5.5 1 1.1 1 .5 0 .7-.5.4-1-.3-.6-.8-1-1.1-1-.2 0-.4.4-.4 1zM319 521c-.8.5-1.2 1.1-1 1.4.3.2 1.4-.2 2.4-1 2.2-1.5 1-1.9-1.4-.4zM169.4 522.2c-.5.8-.2.9 1 .5 1.6-.6 1.7-.3 1.2 2s-.4 2.5.5 1c1.2-2 .6-4.7-1-4.7-.5 0-1.3.5-1.7 1.2zM282.3 522.5c-.3.9-.3 1.8-.1 2.1.3.3.8-.4 1.1-1.6.6-2.3-.1-2.7-1-.5zM380.7 523.1c.4 1.3.8 1.8 1.1 1 .2-.7-.1-1.8-.6-2.3-.8-.8-.9-.4-.5 1.3zM386 522c0 .6.4.9.9.5.5-.3 1.2.2 1.4 1 .4 1.2.5 1.2.3-.1-.1-1.9-2.6-3.2-2.6-1.4zM177.5 523c.3.5.8 1 1.1 1 .2 0 .4-.5.4-1 0-.6-.5-1-1.1-1-.5 0-.7.4-.4 1zM196.5 524.4c-1.5 1.3-2.5 3-2.2 3.7.4.9.6.7.6-.5.1-1.1.4-1.7.7-1.3.4.3 1.5-.4 2.4-1.6 1-1.2 2.2-1.9 2.6-1.5.4.4-.5 1.9-2 3.3-3.6 3.3-2 3.2 1.8-.1 2.3-2.1 2.6-2.8 1.5-3.5-2-1.2-2.3-1.2-5.4 1.5zM212.3 522.8c1 .4 1.8 1.1 1.8 1.5-.3 2.2 0 2.7 1 2.1.8-.5.8-.9-.1-1.4-.6-.4-1.1-1.1-1-1.6 0-.5-.7-1-1.7-1.1-1.7-.3-1.7-.2 0 .5zM225.5 523c.3.5.8 1 1.1 1 .2 0 .4-.5.4-1 0-.6-.5-1-1.1-1-.5 0-.7.4-.4 1zM260.7 524c1 1.1 2.4 2 3.3 1.9 1 0 .9-.3-.5-.9-1.1-.5-1.5-.9-1-.9.6-.1.3-.6-.5-1.1-2.5-1.6-3.1-1.1-1.3 1zM287 523c-1.3.8-1.2 1 .3 1 .9 0 1.7-.5 1.7-1 0-1.2-.1-1.2-2 0zM321.5 523c.3.5.8 1 1.1 1 .2 0 .4-.5.4-1 0-.6-.5-1-1.1-1-.5 0-.7.4-.4 1zM373 523.1c0 .5.5.7 1 .4.6-.3 1-.8 1-1.1 0-.2-.4-.4-1-.4-.5 0-1 .5-1 1.1zM383.3 524.2c-.2 1.8 0 2 .7.8 1.2-1.8 1.3-3 .2-3-.4 0-.9 1-.9 2.2zM228 524.6c0 .8-.4 1.2-1 .9-.5-.3-1-.1-1 .4 0 .6.4 1.1.9 1.1.4 0 2 1.1 3.5 2.5 1.4 1.3 2.6 2 2.6 1.5s-1.1-1.7-2.4-2.5c-1.6-1.1-2.2-2.2-1.9-3.5.3-1.1.3-2-.1-2-.3 0-.6.7-.6 1.6zM284.1 523.9c-.1.8-.9 2-1.8 2.7-1.7 1.2-1.7 1.4.5 3.4 1.2 1.1 2.2 1.6 2.2 1.1 0-.6-.8-1.4-1.7-2-1.7-.9-1.7-1.1.1-2.4 1-.7 1.6-2 1.3-2.8-.5-1.2-.6-1.2-.6 0zM293.8 525.5c-1.6 1.3-2.8 2.9-2.8 3.4 0 .6 1.4-.3 3.1-2 3.8-3.7 3.5-4.7-.3-1.4zM353.4 524.5c-.4.8-.9 1.3-1.3 1.2-.3-.2-1.5.5-2.5 1.6-1.6 1.7-1.7 1.9-.3 1.4 1.1-.4 2.2.2 3.3 1.8.9 1.4 2.4 2.5 3.3 2.4 1.3 0 1.3-.2.1-.6-.8-.4-2.2-1.5-3.1-2.6-1.5-1.9-1.5-2.2.9-4.4 1.4-1.3 2-2.3 1.3-2.3-.6 0-1.4.7-1.7 1.5zM366.6 525.5c1.6 2.4 3.4 2.5 3.4.2 0-.8-.3-.7-.9.2-.7 1.1-1 .9-1.6-.8-.3-1.1-1.1-2.1-1.6-2.1s-.2 1.1.7 2.5zM371.4 528c0 3 .1 4.7.4 3.7.2-.9.8-1.5 1.3-1.2.5.4.9.2.9-.4 0-.5-.6-1.2-1.2-1.5-1-.5-1-.7 0-1.2.6-.3 1.2-1 1.2-1.5 0-.6-.4-.8-.9-.4-.5.3-1.1-.3-1.3-1.2-.3-1-.4.7-.4 3.7zM375.7 523.7c-.9 1.7-.1 8.7 1.1 9.1.6.2 1.2-.1 1.2-.8 0-.6-.4-.8-1-.5-1.6 1-1.1-.7.6-1.9 1.6-1.2.9-5.1-.7-4-.5.3-.9.1-.9-.5 0-.5.6-1.2 1.3-1.4.9-.4.9-.6 0-.6-.6-.1-1.4.2-1.6.6zm2.3 4.3c0 .5-.4 1-1 1-.5 0-1-.5-1-1 0-.6.5-1 1-1 .6 0 1 .4 1 1zM379.1 524.1c0 .8 1.3 2.5 2.9 3.7 1.7 1.3 3 1.9 3 1.4s-1.1-1.5-2.5-2.2c-1.3-.7-2.6-2-2.8-2.9-.4-1.4-.5-1.4-.6 0zM174.8 524.7c.6.2 1 .9.7 1.3-.3.5-.2 1.1.3 1.4.4.2.9-.4.9-1.5.1-1.2-.4-1.9-1.5-1.8-1.1 0-1.2.2-.4.6zM217.5 525c-.3.5-.1 1 .4 1 .6 0 1.1-.5 1.1-1 0-.6-.2-1-.4-1-.3 0-.8.4-1.1 1zM222 524.4c0 .2.7.6 1.5 1 .8.3 1.5.1 1.5-.4 0-.6-.7-1-1.5-1s-1.5.2-1.5.4zM266 524.9c0 .6.4 1.3 1 1.6.6.3.7-.1.4-.9-.7-1.8-1.4-2.1-1.4-.7zM289.5 525c-.3.5-.1 1 .4 1 .6 0 1.1-.5 1.1-1 0-.6-.2-1-.4-1-.3 0-.8.4-1.1 1zM314 524.9c0 .6.4 1.3 1 1.6.6.3.7-.1.4-.9-.7-1.8-1.4-2.1-1.4-.7zM318 524.4c0 .2.7.6 1.5 1 .8.3 1.5.1 1.5-.4 0-.6-.7-1-1.5-1s-1.5.2-1.5.4zM385.7 524.7c-.4.3-.7 1.1-.7 1.7 0 .6.5.5 1.2-.2.6-.6.9-1.4.7-1.7-.3-.3-.9-.2-1.2.2z"/><path d="M230 526c0 .5.3 1 .8 1 .4 0 2 1.1 3.5 2.5s2.7 2.2 2.7 1.8c0-.4-1.6-2.1-3.5-3.6s-3.5-2.3-3.5-1.7zM246 527.5c-.7 1.3-1.8 2.3-2.3 2.2-.6-.1-1.2.7-1.3 1.8-.2 1.5-.2 1.6.2.2.3-.9.9-1.5 1.4-1.2.5.3 1.4-.4 2-1.5.6-1.1 1.6-2 2.2-2 .7 0 .6.5-.2 1.5-1.5 1.9-.4 2 1.5.2 1.1-1.1 1-1.5-.5-2.5-1.4-.9-2-.6-3 1.3zM285.6 526.7c-.5 1.1-.1 2.2 1 3 2.1 1.6 3.4 1.7 3.4.3 0-.6-.3-.9-.7-.9-1.9.3-3.3-.2-3.3-1.2 0-.6.9-.8 2.3-.3 1.2.3 2 .5 1.7.2-3.4-2.7-3.8-2.8-4.4-1.1zM362.5 527.1c-.5 1.6 0 2.7 2 4.5 2.3 1.9 5.5 2.4 5.5.7 0-.3-.7-.3-1.5.1-.8.3-2-.3-2.8-1.4-.8-1.1-1.7-1.7-2-1.3-.4.3-.7-.1-.7-1 0-2.2 1.5-2.2 3.2 0 1.5 2 3.8 2.8 3.8 1.3 0-.6-.7-1-1.5-1s-2-.9-2.7-2c-1.6-2.6-2.5-2.5-3.3.1zM389.5 525.9c-.3.5-.2 1.2.3 1.5.5.3.9-.1.9-.9 0-1.7-.3-1.9-1.2-.6zM173.3 527.7c0 1.3.9 1.9 2.6 2 1.5.1 1.9-.1 1.1-.4-.8-.3-2-1.2-2.7-2-1-1.3-1.2-1.3-1 .4zM211.6 527.5c.4.8 1 1.5 1.5 1.5.4 0 .6-.7.3-1.5-.4-.8-1-1.5-1.5-1.5-.4 0-.6.7-.3 1.5zM220.4 526.8c-1.5 1-7.4 9.3-7.4 10.4 0 .4.5.8 1 .8.6 0 .9-.3.9-.8-.3-2 .4-3.3 4-7.1s4.2-5.1 1.5-3.3zM268.4 527.3c-.6.7-2.1 1.9-3.3 2.7-1.1.8-2.1 1.8-2.1 2.3 0 .5 1.4-.3 3-1.7 1.7-1.4 3.6-2.4 4.3-2.2.6.1.9.1.4-.1-.4-.3-.5-.9-.1-1.4.8-1.3-.9-1-2.2.4zM307.6 527.5c.7 1.8 2 1.9 3 .3.4-.7.3-.8-.4-.4s-1.2.2-1.2-.3c0-.6-.4-1.1-1-1.1-.5 0-.7.7-.4 1.5zM317 527.1c0 .5.5.7 1 .4.6-.3 1-.8 1-1.1 0-.2-.4-.4-1-.4-.5 0-1 .5-1 1.1zM216 527.8c0 .5-.9 1.8-2 3-1.2 1.2-1.7 2.2-1.2 2.2.4 0 1.8-1.4 3-3 1.3-1.7 1.8-3 1.2-3-.5 0-1 .4-1 .8z"/><path d="M220.1 531.3c-4.2 4.3-4.9 5.7-2.9 5.7.6 0 .9-.3.5-.6-.3-.4.1-1.3.9-2.1 1.7-1.8 3.2-1 1.6.9-.7 1-.4 1.8 1.4 3.1 1.9 1.4 2.3 1.5 1.8.2-.3-.8-1-1.5-1.5-1.5s-.9-.5-.9-1c0-.6.8-1 1.8-.8 1.3.2 1.6-.3 1.4-2.2-.2-2.4-.2-2.4 1.5-.8 1.6 1.6 1.6 1.9-.2 3.8-2.2 2.4-1.4 2.7 1 .4.9-.9 1.9-1.3 2.2-1 .4.4-.5 1.8-2 3.2-2.6 2.4-3.3 3.4-2.2 3.4.8 0 5.5-5.1 5.5-6 0-1.6-5.1-6.1-6.1-5.4-.5.3-.7 1.5-.3 2.7.6 2.1.5 2.1-1.2.4-1.8-1.7-1.8-1.8.3-3.9l2.2-2.1 4.1 4.1 4.1 4-4 4.3-4.1 4.2-3-3.1c-1.7-1.8-3.5-3.2-4-3.2-.6 0 .4 1.3 2.2 2.9 2.8 2.5 3 3.1 1.9 4.5-.9 1.1-1 1.6-.2 1.6.6 0 1.1-.5 1.1-1.1 0-.5.5-.7 1-.4.6.3 1 .1 1-.6s.3-.9.6-.6c.7.7 3.5-2.1 6.1-6 .9-1.4 2-2 3.1-1.5 1.9.7-6.4-7.5-9-8.9-1.2-.7-2.6.1-5.7 3.4zM311 529.5c-.7 1.3-2 2.6-2.9 2.8-1.4.4-1.4.5 0 .6.9 0 2.4-1 3.3-2.4 1.1-1.6 2.2-2.2 3.4-1.9 1.4.5 1.5.4.2-.5-2.1-1.5-2.5-1.4-4 1.4zM319.4 528.1c-.9 1.6.2 2.2 2.1 1.1 1.5-.8 1.6-1 .1-1.5-.8-.3-1.8-.2-2.2.4zM293.5 529c-.3.5-.1 1 .4 1 .6 0 1.1-.5 1.1-1 0-.6-.2-1-.4-1-.3 0-.8.4-1.1 1zM250 530c0 .5.5 1 1.1 1 .5 0 .7-.5.4-1-.3-.6-.8-1-1.1-1-.2 0-.4.4-.4 1zM316.5 530c-.3.5-.1 1 .4 1 .6 0 1.1-.5 1.1-1 0-.6-.2-1-.4-1-.3 0-.8.4-1.1 1zM338.5 530.1c-.4.6-.5 1.2-.2 1.5.2.3.7-.2 1-1.1.7-1.7.1-2-.8-.4zM346 530c0 .5.5 1 1.1 1 .5 0 .7-.5.4-1-.3-.6-.8-1-1.1-1-.2 0-.4.4-.4 1zM379.5 530c-.4.6-.4 1.4-.1 1.7.3.4.6.1.6-.5 0-.7.5-1.2 1.1-1.2.5 0 .7.5.4 1-.9 1.4 2.4 2.5 3.7 1.2.8-.8.5-.9-1.1-.5-1.5.4-2.1.1-1.9-.7.4-1.6-1.8-2.4-2.7-1zM179 531.1c0 .5-.6.7-1.2.3-.7-.4-.9-.3-.5.1 1.3 1.5 3.6 1.4 3-.1-.6-1.7-1.3-1.8-1.3-.3zM193.6 530.9c-.4.5.3.7 1.4.4 2.3-.6 2.6-1.3.6-1.3-.8 0-1.7.4-2 .9zM253.5 530.9c.3.5 0 1.1-.7 1.4-.7.2-.5.3.6.1 1-.2 3.1 1 4.7 2.6 3.5 3.4 3.8 2.6.5-1.2-1.2-1.5-2.6-2.5-3-2.1-.3.3-.6.1-.6-.5 0-.7-.5-1.2-1.1-1.2-.5 0-.8.4-.4.9zM269 531.1c0 .5.5.7 1 .4.6-.3 1-.8 1-1.1 0-.2-.4-.4-1-.4-.5 0-1 .5-1 1.1zM273.5 532c1.8 2 1.8 2.1-.3 4.3-1.2 1.3-2.2 2.7-2.2 3.1 0 .4 1.1-.5 2.5-2s2.9-2.4 3.3-2c.4.4-.3 1.6-1.5 2.6-1.2.9-1.9 2-1.6 2.4.4.3-.2.6-1.3.7-1.2 0-1.4.2-.5.6 1.2.5 6.1-4.1 6.1-5.8 0-.9-4.8-5.9-5.7-5.9-.3 0 .2.9 1.2 2z"/><path d="M305.6 530.9c-.4.5.3.7 1.4.4 2.3-.6 2.6-1.3.6-1.3-.8 0-1.7.4-2 .9zM311.3 532.5c-1.2 1.4-1.7 2.7-1.2 3.1.5.3.9.1.9-.4 0-.4.9-1.8 2-3 1.2-1.2 1.7-2.2 1.3-2.2-.4 0-1.8 1.1-3 2.5zM351 532.5c1.3 1.4 2.1 2.7 1.8 3-.2.3-1.3-.4-2.3-1.5-1-1.1-2.2-2-2.7-2s.2 1.1 1.5 2.4c2.5 2.5 6.9 3 7.3.8.1-.7 0-.8-.3-.2-.2.5-1 1-1.5 1-.6 0-.9-.3-.6-.6.6-.5-3.8-5.4-4.9-5.4-.4 0 .4 1.1 1.7 2.5zM355 530.4c0 .2.9.6 2 .9 1.1.3 1.8.1 1.4-.4-.5-.9-3.4-1.3-3.4-.5zM234.3 532.3c.1 1 .6 1.7 1.1 1.7.5-.1 1.3.4 1.8 1.2.8 1.1.9 1.1.6 0-.2-.8-.8-1.3-1.3-1.2-.5.1-1.3-.7-1.7-1.7-.7-1.7-.8-1.7-.5 0zM238 532c0 .6.5 1 1.1 1 .5 0 .7.5.3 1.2-.4.7-.3.8.4.4 1.6-1 1.5-2.3-.3-3-.8-.3-1.5-.1-1.5.4zM246 532c0 .5.7.7 1.5.4.8-.4 1.5-.8 1.5-1 0-.2-.7-.4-1.5-.4s-1.5.4-1.5 1zM282 531.8c0 1.1 2 3.8 2 2.7 0-.6.5-.3 1 .5s1 1 1 .5c0-.6-.9-1.8-2-2.8-1.1-.9-2-1.3-2-.9zM286 532c0 .5.5 1 1.1 1 .5 0 .7-.5.4-1-.3-.6-.8-1-1.1-1-.2 0-.4.4-.4 1zM326.1 532.7c1.7 2.2 4.2 4.2 5.1 4.3.4 0-.6-1.4-2.2-3-3.2-3.3-5.1-4.1-2.9-1.3zM340 532.7c0 .9-.3 1.4-.6 1-.3-.3-1.4.3-2.5 1.4-1.5 1.5-1.7 2.3-.9 3.7 1 1.5 1.1 1.5.6 0-.5-1.8 2-4.5 3.2-3.3.4.4.1 1-.5 1.2-.7.3-1.3.9-1.3 1.4 0 .6.4.8.9.4.5-.3 1.1.3 1.3 1.2.3 1 .5-.6.5-3.5 0-2.8-.1-5.2-.3-5.2-.2 0-.4.7-.4 1.7z"/><path d="M345.7 534.5c2 1.9 3.4 3.7 3.1 4.1-.4.3-1.5-.1-2.4-1-1.8-1.9-3.6-1.7-4.2.5-.3 1.1-.2 1.1.7-.1.9-1.3 1.2-1.3 2.7.2 1.7 1.6 1.7 1.8-.1 3.8-1 1.1-1.4 2-.9 2 .5 0-.7 1.4-2.6 3.1-2.8 2.4-2.9 2.7-.7 1.3 2.6-1.6 2.8-1.6 4.3.2 1.4 1.8 1.5 1.8.4-.3-.5-1.2-.9-2.8-.8-3.5.5-2 4.7-6.3 5.5-5.4.4.4.3 1-.3 1.4-1.2.8-3.4 4.6-3.4 5.9 0 .4.9-.7 2-2.5 1.9-3.2 2.6-3.5 6.5-3.4 1.7.1 1.7 0 .2-.4-.9-.3-1.5-1-1.2-1.5.4-.5.2-.9-.4-.9-.5 0-1.1.5-1.3 1.1-.2.6-2.3-1-4.6-3.5s-4.7-4.6-5.3-4.6c-.5 0 .7 1.6 2.8 3.5zM362.5 533.4c2.6 2.1 2.8 2.5 1.3 3.1-1 .4-1.8 1.1-1.8 1.7 0 .5.5.6 1.2.2.8-.5.9-.2.5 1-.4 1-.3 1.5.3 1.1.6-.3 1 0 1 .7 0 .8.3.9.8.3.4-.6 1.7-1 3-.9 1.2.1 2.2-.2 2.2-.7 0-.4-1.3-.6-2.9-.4-3.2.4-5.2-2.1-2.6-3.1 1.1-.5.7-1.2-1.4-3-1.6-1.3-3.3-2.4-3.7-2.4-.5 0 .5 1.1 2.1 2.4zM243.3 533.5c-.7.8-2.1 1.8-3 2.4-1 .5-1.6 1.2-1.3 1.4.3.3 1.8-.5 3.5-1.8 1.6-1.3 2.7-2.6 2.5-2.9-.3-.2-1.1.2-1.7.9zM268.4 534.5c-1.6 1.4-3.3 2.5-3.8 2.5s-.6.3-.3.6c.4.4 2.2-.5 4.2-2 1.9-1.5 3.5-2.2 3.5-1.7 0 .6-1.1 1.8-2.5 2.7-1.4.9-2.5 2.4-2.4 3.3 0 1.2.2 1.3.6.2.3-.8 1.8-2.5 3.2-3.7 1.9-1.6 2.3-2.6 1.5-3.4-.7-.7-1.9-.3-4 1.5zM289.7 533.1c.7.7 1.5 1 1.8.7.3-.3-.2-.9-1.2-1.2-1.4-.6-1.5-.5-.6.5zM313.7 533.8c-2.2 2.4-2.2 2.7 1 5.6 1.5 1.4 2.4 2.8 2 3.2-.4.4-2.7-1.4-5.2-3.9-2.5-2.6-4.5-4.2-4.5-3.7s1.9 2.7 4.3 4.9c2.3 2.2 3.7 4.1 3 4.1-.6 0-2-.8-2.9-1.8-1.7-1.6-1.7-1.6-1.1 0 .4 1.2 0 2.1-1.3 2.8-1.1.6-2 1.8-1.9 2.8 0 1.4.2 1.4.6.2.7-1.7 3.3-3.9 4.7-4 .5 0 .4.6-.3 1.3-.6.8-.9 2.3-.6 3.5.2 1.5-.3 2.3-1.6 2.7-1.1.4-1.8.9-1.6 1.2.3.2 1.5-.1 2.7-.7 1.2-.6 1.9-1.4 1.6-1.7-.9-1 6.5-6.2 8-5.6.8.3 1.4 0 1.4-.5 0-.6-1.2-.9-2.7-.6-2.3.4-2.5.3-1.3-1 .7-.9 1.7-1.3 2.2-1 .6.4 2.1-.6 3.4-2.1 2.7-3.1 2.7-3.4 1.5-5.4-.8-1.2-1.3-1.1-3 1-1.1 1.3-2 2-2.1 1.5 0-.5-.9-.1-2 .9-1.9 1.7-2.2 1.8-3.7.2-1.6-1.5-1.5-1.8.7-3.7 1.3-1.1 1.9-2 1.3-2-.5 0-1.7.8-2.6 1.8zm11.3 2.1c0 .6-.9 1.6-2 2.4-1.1.8-1.7 1.6-1.5 1.9.3.3-.6.5-2 .5s-2.5-.2-2.5-.4c0-.8 2.5-2.8 4-3.1.8-.2 1.7-.8 1.8-1.3.5-1.2 2.2-1.2 2.2 0zm-9.9 10.2c-1.3 1.1-2.7 1.7-3 1.3-.7-.7 2.8-3.4 4.3-3.4.6.1 0 1-1.3 2.1zM373 532.9c0 .5.7 1.5 1.7 2.2 1.5 1.3 1.5 1.2.4-.9-1.2-2.3-2.1-2.8-2.1-1.3zM181.4 534.1c-.3.6-.3 1.3 0 1.6.3.4.6.1.6-.5s.7-.9 1.5-.6c.8.4 1.5.4 1.5.1 0-1.1-3-1.6-3.6-.6zM190.2 535.5c-1 2.1-.9 2.7.3 3.2.9.3 1.9.3 2.2-.1.4-.3-.1-.6-1.1-.6-1.4 0-1.5-.4-.6-2 .6-1.1 1.5-1.8 2.1-1.5.5.4.9.1.9-.4 0-2.1-2.7-1.1-3.8 1.4zM243.4 536.5c-2.7 1.9-4.4 3.5-3.8 3.5.6 0 2.4-1.1 4-2.5 2.7-2.4 3.9-2.9 5.7-2.6.4 0 .7-.4.7-.9 0-1.7-1.5-1.1-6.6 2.5z"/><path d="M342 534c0 .5.5 1 1.1 1 .5 0 .7-.5.4-1-.3-.6-.8-1-1.1-1-.2 0-.4.4-.4 1zM358 534.2c0 .6.3.8.6.5.4-.3 1.6-.2 2.8.4 2 1 2 1 .2-.5-2.4-1.9-3.6-2-3.6-.4zM379 534c0 .5.5 1 1 1 .6 0 1-.5 1-1 0-.6-.4-1-1-1-.5 0-1 .4-1 1zM177.5 535.1c-.4.6-.5 1.2-.2 1.5.2.3.7-.2 1-1.1.7-1.7.1-2-.8-.4zM195.1 534.7c0 .6.2 1.9.5 2.7.6 1.5.8 1.5 2-.1 1.6-2.2 1.8-3.3.3-3.3-.5 0-.8.4-.4.9.3.5.1 1.2-.4 1.5-.5.4-1.2-.2-1.4-1.1-.3-1-.5-1.3-.6-.6zM211 535.1c0 .5.5.7 1 .4.6-.3 1-.8 1-1.1 0-.2-.4-.4-1-.4-.5 0-1 .5-1 1.1zM251 534.8c0 1.3 4.7 6.2 5.4 5.5.3-.3.6-.1.6.5 0 .7.5 1.2 1.1 1.2.5 0 .8-.4.4-.9-.3-.5 0-1.1.7-1.4.7-.2.5-.3-.6-.1-1 .2-3.1-1-4.7-2.6s-2.9-2.5-2.9-2.2zM254 535.5c.7.8 1.6 1.2 2.1.9.5-.3.9 0 .9.5 0 .6.5 1.1 1.1 1.1.8 0 .8-.5-.1-1.5-.7-.8-1.6-1.2-2.1-.9-.5.3-.9 0-.9-.5 0-.6-.5-1.1-1.1-1.1-.8 0-.8.5.1 1.5zM287.3 536c-.1 1.1.2 2 .5 2 .4 0 .8-.9.9-2 .1-1.1-.2-2-.5-2-.4 0-.8.9-.9 2zM370.6 536.5c1.9 2.9 2.6 3.2 1.7.8-.5-1.2-.3-1.4.7-.8.9.5 1.1.4.6-.4-.4-.6-1.2-.9-1.7-.6-.5.4-.9.1-.9-.4 0-.6-.5-1.1-1-1.1-.6 0-.3 1.1.6 2.5zM206.2 536.9c.9 1.6 1.4 1.7 2.5.6 1.8-1.9 1.7-3-.2-1.5-1 .9-1.5.9-1.5.1 0-.6-.5-1.1-1-1.1-.6 0-.6.7.2 1.9zM290.1 536.1c-.1 1.3 4.7 5.9 8.4 8.1.7.5 1.2 1.6 1.1 2.5-.2 1-.1 1.2.1.5.3-.7.9-1 1.4-.7.5.4.9.2.9-.3s-1.2-1.5-2.6-2.3c-1.4-.7-3.7-2.6-5-4.2-1.3-1.6-2.4-2.5-2.5-2 0 .4-.4-.1-.9-1.2-.6-1.5-.9-1.6-.9-.4zM183.3 537.5c0 .8.4 1.5.9 1.5.4 0 .8-.4.8-.9 0-.6-.4-1.2-.8-1.5-.5-.3-.9.1-.9.9zM243.8 539.6c-4.3 4-4.5 4.6-2.2 6.9.9.9 1.3 1.9 1 2.2-.7.8-4.9-3.4-5.9-5.7-.5-1.3-.6-1.3-.6 0-.1.8 1 2.7 2.4 4.2 2.5 2.8 3.3 4.4 1.5 3.3-.5-.3-1-.1-1 .4 0 2 1.5 1.1 6.3-3.6 2.6-2.5 5-4.3 5.4-4 .3.4-1.2 2.4-3.4 4.5s-4 4.5-4 5.3c0 .7-.2 1.9-.4 2.5-.2.7.1 1.3.6 1.4.6.1 1.9.6 3 1.1 1.6.8 1.5.6-.2-.7-2.2-1.6-3.3-4.2-1.3-2.9.6.3 1 .1 1-.4 0-.6-.6-1.1-1.2-1.1-.7 0-.2-1.1 1.2-2.3 1.4-1.3 3.3-3.3 4.4-4.5 1.8-2.1 1.8-2.2-.1-4.5l-1.9-2.4-2.8 2.4c-1.6 1.3-2.6 2.7-2.2 3 .3.3 1.5-.4 2.6-1.7 1.1-1.3 2.3-2 2.7-1.6.4.3-.5 1.9-2 3.4-2.5 2.5-2.8 2.5-4.4.9-1.6-1.6-1.5-1.9 2.1-5.3l3.8-3.6 3.5 3.7c2.8 3 3.2 3.9 2.2 4.7-1 .7-.8.8.7.3 1.6-.4 2.8.2 4.8 2.5 1.4 1.8 2.6 2.7 2.6 2.1 0-1.1-12.9-14.1-13.9-14.1-.3 0-2.3 1.6-4.3 3.6zM302.6 538.5c-.9 1.4-1.2 2.5-.6 2.5.5 0 1-.4 1-.9s.7-1.7 1.6-2.5c.8-.9 1.1-1.6.6-1.6-.5 0-1.7 1.1-2.6 2.5zM359.3 538c.1 1.1.5 2 .9 2 .3 0 .6-.9.5-2-.1-1.1-.5-2-.9-2-.3 0-.6.9-.5 2zM367 537c-1.3.8-1.2 1 .3 1 .9 0 1.7-.5 1.7-1 0-1.2-.1-1.2-2 0zM377 536.9c0 .6.4 1.3 1 1.6.6.3.7-.1.4-.9-.7-1.8-1.4-2.1-1.4-.7zM210.1 537.9c-.8.5-.9 1.1-.3 1.5.5.3 1.2-.1 1.6-.9.6-1.7.6-1.8-1.3-.6zM236.5 538c-.3.5-.1 1 .4 1 .6 0 1.1-.5 1.1-1 0-.6-.2-1-.4-1-.3 0-.8.4-1.1 1zM262.4 538.3c.3 1 .6 2.1.6 2.3 0 .2.7.4 1.5.4s1.5-.5 1.5-1.1c0-.5-.4-.8-.9-.4-.6.3-1.5-.3-2.1-1.2-1.1-1.7-1.1-1.7-.6 0zM284.6 537.9c-.3.5.1 1.1.9 1.4.9.4 1.2.1.8-.9-.6-1.6-1-1.7-1.7-.5zM325.8 539.1c-1 1-1.4 1.9-.9 1.9.5 0 1.4-.7 2.1-1.5 2.2-2.7 2.3-.7.1 2.1-2.3 2.9-2.7 4.4-1 4.4.5 0 .8-.4.5-.8-1-1.7 2.3-5 4.6-4.6 1.3.2 1.6.1.8-.2-.8-.4-1.9-1.3-2.3-2-1-1.8-1.8-1.7-3.9.7zM356.5 538c-.3.5-.1 1 .4 1 .6 0 1.1-.5 1.1-1 0-.6-.2-1-.4-1-.3 0-.8.4-1.1 1zM193.7 539.4c-.5 1.2-.3 1.5.5 1s.9-.1.4 1.2c-.5 1.4-.4 1.6.4.7.8-.7.9-1.7.3-2.8-.9-1.6-1-1.6-1.6-.1zM233 538.9c0 .4-1.1 2-2.5 3.5-1.3 1.4-2 2.6-1.5 2.6s1.7-1.1 2.5-2.4c.9-1.3 2.4-2.3 3.3-2.1.9.1 1.1 0 .4-.2-.7-.3-1-.9-.7-1.4.4-.5.1-.9-.4-.9-.6 0-1.1.4-1.1.9zM279.1 542c-1.2 2.2-1.8 4-1.4 4 .5 0 1.4-1.3 2-2.9.7-2.1 1.7-2.9 2.9-2.7 1.1.2 1.3.1.6-.1-.7-.3-1-.9-.7-1.4.4-.5.2-.9-.3-.9-.4 0-1.8 1.8-3.1 4zM305.5 539c.3.5.8 1 1.1 1 .2 0 .4-.5.4-1 0-.6-.5-1-1.1-1-.5 0-.7.4-.4 1zM331 538.4c0 .2.9.6 2 .9 1.1.3 1.8.1 1.4-.4-.5-.9-3.4-1.3-3.4-.5zM212 540.6c0 .8-.4 1.2-1 .9-.5-.3-1-.2-1 .2 0 .5 1.4 1.7 3 2.6 1.7 1 3 1.6 3 1.3 0-.3.9.2 1.9 1.1 1.1.9 1.7 2.1 1.4 2.6-.3.6-.1.7.5.3.8-.5.2-2-2-4.7-1.7-2.1-3.4-3.6-3.7-3.3-.3.4 0 .9.7 1.1.6.3 1.2.9 1.2 1.4 0 .6-.8.6-1.9-.1-1.3-.6-1.7-1.7-1.4-3 .3-1.1.3-2-.1-2-.3 0-.6.7-.6 1.6zM217.2 542c1.7 1.7 3.3 2.8 3.6 2.6.5-.6-4.8-5.6-6-5.6-.3 0 .7 1.4 2.4 3zM268.7 540.9c-.4 1.7-.3 2.1.5 1.3.5-.5.8-1.6.6-2.3-.3-.8-.7-.3-1.1 1zM288.5 540c.3.5.8 1 1.1 1 .2 0 .4-.5.4-1 0-.6-.5-1-1.1-1-.5 0-.7.4-.4 1zM308 540.6c0 .8-.4 1.2-1 .9-.5-.3-1-.2-1 .3 0 2.3 2.6 1.8 2.8-.4.1-1.3 0-2.4-.3-2.4s-.5.7-.5 1.6zM341.8 541.5c-1.5 1.3-2.4 2.5-1.9 2.7.4.2-.3 1.4-1.7 2.8-2.3 2.4-2.4 2.1-.6-2.4.5-1.4.3-1.7-.7-1.4-.8.3-1.3 1.2-1.1 2.1.2 1.2-.2 1.5-1.5 1.1-1.1-.4-1.4-.3-.7.3.6.4 1.5 1.5 2 2.3.7 1.2 1.4.9 4.1-1.8 1.7-1.7 2.6-3.2 2.1-3.2-.6 0-.1-.9 1.2-2s2.1-2.2 1.9-2.4c-.2-.2-1.6.6-3.1 1.9z"/><path d="M291 540.7c0 .4 1.6 2.1 3.5 3.6s3.5 2.3 3.5 1.7c0-.5-.3-1-.8-1-.4 0-2-1.1-3.5-2.5s-2.7-2.2-2.7-1.8zM337.5 541c-.3.5-.1 1 .4 1 .6 0 1.1-.5 1.1-1 0-.6-.2-1-.4-1-.3 0-.8.4-1.1 1zM191.4 542.4c.1.8.5 1.8.8 2.2.4.3.5-.1.4-1-.1-.8-.5-1.8-.8-2.2-.4-.3-.5.1-.4 1zM238 542.1c0 .5.5.7 1 .4.6-.3 1-.8 1-1.1 0-.2-.4-.4-1-.4-.5 0-1 .5-1 1.1zM260.5 542c.3.5.8 1 1.1 1 .2 0 .4-.5.4-1 0-.6-.5-1-1.1-1-.5 0-.7.4-.4 1zM286 542c0 .5.3.9.8.9 1.7-.3 2.9.3 6.2 3.1 1.9 1.6 3.9 3 4.3 3 .9 0-3.2-3.5-7.3-6.3-2.8-1.9-4-2.1-4-.7zM334 542.1c0 .5.5.7 1 .4.6-.3 1-.8 1-1.1 0-.2-.4-.4-1-.4-.5 0-1 .5-1 1.1zM359 541.9c.8.5 1.8.7 2.4.4.5-.4.7.3.4 1.5-.4 1.3-.2 2 .3 1.6 1.8-1.1.4-3.7-2.1-4.1-1.8-.2-2.1-.1-1 .6zM231.5 544.9c-1 1.7-3 3.5-4.3 4.1-2 .9-2.2 1.3-1.2 2.5.7.8 1.7 1.5 2.3 1.5.6 0 .2-.7-.9-1.6-1.9-1.5-1.9-1.6.1-.9 1.1.3 1.7.3 1.3 0-.3-.3.4-1.7 1.6-3 1.8-2.1 2.3-2.2 3.7-.9.8.8 1.9 1.4 2.4 1.4.4 0-.1-.8-1.3-1.8-1.6-1.4-1.8-2.2-1-3 .7-.7.8-1.2.3-1.2-.6 0-1.9 1.3-3 2.9z"/><path d="M263 542.5c0 .6.5 1.6 1.2 2.3 2.1 2.1 0 2.4-2.3.3-3.3-3.1-4.2-2.6-1.1.7l2.7 2.7 2.6-2c2-1.6 2.3-2.3 1.3-3.3-1.8-1.7-2.9-1.5-1.4.3.8 1 .9 1.5.2 1.5-.6 0-1.6-.8-2.1-1.8-.6-.9-1.1-1.2-1.1-.7zM280.6 543.6c-.5 1.4-.4 1.5.9.4 1.7-1.4 1.9-2 .6-2-.5 0-1.2.7-1.5 1.6z"/><path d="M282.4 544.8c-1.5 1.8-3 2.6-5 2.5-1.6 0-2.1.1-1.1.4.9.2 1.5.9 1.2 1.4-.4.5-.1.9.4.9.6 0 1.1-.5 1.1-1.2 0-.6.3-.8.6-.5.7.7 5.4-4.2 5.4-5.6 0-1.1-.3-.8-2.6 2.1zM323 543.1c0 .5.5.7 1 .4.6-.3 1-.8 1-1.1 0-.2-.4-.4-1-.4-.5 0-1 .5-1 1.1zM328.6 543.6c-.9 2.4-.2 2.6 1.2.4.7-1.1.8-2 .3-2s-1.2.7-1.5 1.6zM332 543.5c0 .8.4 1.5 1 1.5.5 0 .7-.7.4-1.5-.4-.8-.8-1.5-1-1.5-.2 0-.4.7-.4 1.5zM351.4 543.5c-1 .8-1.4 1.4-.9 1.4.6 0 1.9-.6 2.9-1.4 1.1-.8 1.5-1.5 1-1.5-.6 0-1.9.7-3 1.5zM355.7 543.4c-.4.9-.3 1.5.2 1.1.5-.3 1.1 0 1.3.7.3.7.7.5 1.1-.6.4-.9.3-1.5-.2-1.1-.5.3-1.1 0-1.3-.7-.3-.7-.7-.5-1.1.6zM200.5 544c-.3.6.1.7.9.4 1.8-.7 2.1-1.4.7-1.4-.6 0-1.3.4-1.6 1zM270.3 543.9c.3 1.1-6 7.1-6.7 6.4-.3-.4-.6-.1-.6.5 0 2 1.3 1.4 5.3-2.4 3.7-3.5 4.6-5.4 2.7-5.4-.5 0-.9.4-.7.9zM287 545.2c0 .6.3.9.6.5.3-.3 2.2 1 4.2 2.9l3.6 3.4-2.2 1.8c-1.2 1.1-2.2 2.3-2.2 2.7 0 .5 1.1-.2 2.5-1.5s2.5-2.7 2.5-3.1c0-1-7.2-7.9-8.2-7.9-.5 0-.8.5-.8 1.2zM198 545.4c0 .2.8 1 1.8 1.7 1.5 1.3 1.6 1.2.3-.4s-2.1-2.1-2.1-1.3zM211.8 546.8c.9 1.1 2.1 1.7 2.5 1.4.5-.2 0-1-1-1.8-2.6-2-3.6-1.7-1.5.4z"/><path d="M271 548c-2.9 3.3-7.4 6.2-8.4 5.3-.3-.3-.6-.1-.6.5 0 1.6 1.2 1.5 3.6-.3 3.1-2.3 4.1-1.7 1.4.9-1.4 1.3-2.8 2.2-3.2 2-.3-.2-.5.4-.4 1.3.2.9.9 1.9 1.7 2.1 1.1.3 1.1.2.1-.6-1-.7-.5-1.6 2.3-4 2-1.8 4-3.2 4.5-3.2.6 0 1-.5 1-1.2 0-.9-.3-.9-1.2 0-.7.7-1.7 1.2-2.2 1.2-.6 0 .2-1.1 1.7-2.5s2.7-3 2.7-3.5c0-1.4-.1-1.2-3 2zM282.9 548.3c-1.6 1.9-3.5 3.1-4.8 3-1.2-.1-2.1.2-2.1.5 0 .4.9.8 1.9.9 2 .2 8.1-4.9 8.1-6.7 0-1.4-.1-1.3-3.1 2.3zM322.5 546.1c-.4.6-.5 1.2-.2 1.5.2.3.7-.2 1-1.1.7-1.7.1-2-.8-.4zM330 546c0 .5.5 1 1.1 1 .5 0 .7-.5.4-1-.3-.6-.8-1-1.1-1-.2 0-.4.4-.4 1zM353.5 546c.6 1 .4 1.2-1.1.6s-1.7-.5-.6.5c.9.9 1.5 1 2.3.2.8-.8.7-1.3-.2-1.8-.8-.6-1-.4-.4.5zM223.6 548.3c-2.5 2-2.6 2.4-1.2 3.6.9.7 1.3 1.8.9 2.4-.4.6-.1.7.6.3.9-.6.8-1.2-.4-2.6-1.7-1.9-1.7-2 3.3-4.6 1.5-.7 2-1.4 1.2-1.4s-2.8 1-4.4 2.3zM316 549c-3.2 3.1-3.7 4.5-2 5.5.6.4.7 1.1.4 1.7-.4.7-.2.8.4.4.8-.5.9-1.3.3-2.4-.9-1.8-.4-4.4.7-3.9.4.2 1.7-.7 2.9-2 3.3-3.4.9-2.8-2.7.7zM348.7 547.3c-.3.8.1 1.4.8 1.4.7 0 1.1-.6.8-1.4-.6-1.6-1-1.6-1.6 0zM208.3 548.7c-1 1-1.4 1.5-.9 1 1.6-1.1 2.8-.8 2 .5-.4.7-.3.9.1.5.9-.7 1.6-3.7 1-3.7-.1 0-1.1.8-2.2 1.7zM231.2 549c-.7 1.1-1.2 2.3-1.2 2.7 0 .5.5 0 1.1-.9.5-1 1.7-1.5 2.7-1.2 1 .4 1.3.2.7-.3-.5-.4-1.2-1.1-1.5-1.5-.3-.4-1.1.2-1.8 1.2zM252.3 547.7c.9.2 1.5.9 1.2 1.4-.4.5-.1.9.4.9.6 0 1.1-.6 1.1-1.3 0-.6 1.4.3 3 2.1 1.7 1.8 3 2.9 3 2.5 0-2.1-4.8-5.9-7.5-6-1.6 0-2.2.1-1.2.4zM285.7 549.6c-2.4 3.1-2.2 4.2.3 1.4 1.1-1.3 2.3-2 2.7-1.6 1.1 1.1-4.3 5.9-6.8 6-1.2 0-2.4.7-2.5 1.4-.1.7 0 .8.3.2.7-1.4 2.3-1.2 2.1.2-.2.7.6 1.3 1.7 1.4 3 .1 3.7-.6 2.3-2.3-1.1-1.4-1-1.5.8-.9 1.4.4 2.7-.1 4.1-1.6l2.1-2.3-2.7-2.1-2.6-2.1-1.8 2.3zm5.3 2c0 .3-.7 1.2-1.5 2.1-2 1.9-3.2.9-1.5-1.2 1.2-1.5 3-2 3-.9zm-5.6 5.2c.2.4-.4.9-1.5.9-1.1.1-1.7-.2-1.4-.8.7-1.1 2.2-1.2 2.9-.1zM308.7 548.9c-.4 1.7-.3 2.1.5 1.3.5-.5.8-1.6.6-2.3-.3-.8-.7-.3-1.1 1zM324 548.6c0 .8-.4 1.3-.9 1-.5-.3-1.2.1-1.5 1-.8 2.1-.8 2.4.5 2.4.5 0 .7-.5.4-1-.3-.6-.2-1 .4-1 .5 0 1.1.6 1.4 1.2.2.7.4-.2.5-2 0-1.7-.1-3.2-.4-3.2-.2 0-.4.7-.4 1.6zM326.8 547.7c.7.3 1.6.2 1.9-.1.4-.3-.2-.6-1.3-.5-1.1 0-1.4.3-.6.6zM214.6 549.5c-1.8 1.3-1.8 1.4.2 1.2 1.1 0 1.9-.4 1.6-.8-.2-.4.2-1 .8-1.2.7-.3.9-.6.3-.6-.5 0-1.8.6-2.9 1.4zM301 549c0 .5.5 1 1.1 1 .5 0 .7-.5.4-1-.3-.6-.8-1-1.1-1-.2 0-.4.4-.4 1zM319.1 549.8c-1.7 3.1-1.3 4 .5 1.4.9-1.3 1.4-2.6 1.1-2.9-.3-.2-1 .4-1.6 1.5zM329 548.9c-.8.6-1.8.7-2.2.5-.4-.3-.8 0-.8.5 0 1.5 1.3 1.4 3.6-.4 2.1-1.6 1.7-2-.6-.6zM332.2 548.5c.7 1.2-1.7 3.7-2.6 2.8-.3-.4-.6-.1-.6.5 0 .7-.6 1.2-1.4 1.2-2 0-2.9 1.7-1.5 2.6.8.5.9.3.4-.6-.6-1-.3-1.2 1.4-.7 1.3.3 2 .3 1.7 0-.3-.3.5-1.4 1.7-2.3 2.1-1.8 2.2-1.8 2.9.3l.6 2.2.1-2.1c.1-1.2-.7-2.8-1.6-3.5-.9-.8-1.4-1-1.1-.4zM236.5 550c.3.5.8 1 1.1 1 .2 0 .4-.5.4-1 0-.6-.5-1-1.1-1-.5 0-.7.4-.4 1zM250 550.1c0 .5.5.7 1 .4.6-.3 1-.8 1-1.1 0-.2-.4-.4-1-.4-.5 0-1 .5-1 1.1zM274 550.1c0 .5.5.7 1 .4.6-.3 1-.8 1-1.1 0-.2-.4-.4-1-.4-.5 0-1 .5-1 1.1zM341.5 549.9c-.3.5 0 1.3.6 1.7.7.4.9.3.5-.4-.3-.5 0-1.3.6-1.5.9-.4 1-.6.1-.6-.6-.1-1.4.3-1.8.8zM247.7 550.7c-.4.3-.7 1.1-.7 1.7 0 .6.5.5 1.2-.2.6-.6.9-1.4.7-1.7-.3-.3-.9-.2-1.2.2zM298.8 551.8c.9 1 1.9 1.4 2.1.9.2-.5-.3-1.3-1-1.8-2.4-1.5-3-1-1.1.9zM305.6 551.5c.4.8.8 1.5 1 1.5.2 0 .4-.7.4-1.5s-.4-1.5-1-1.5c-.5 0-.7.7-.4 1.5zM232 552.2c0 1.1 1.2 1 3-.2 1.2-.7 1-.9-.8-.7-1.2 0-2.2.5-2.2.9zM251.4 552.2c-.3.5-.3 1.2 0 1.5.3.4.6.1.6-.5 0-.7.5-1.2 1.1-1.2.5 0 .8.4.5.9-.3.5.2 1.2 1.2 1.6 1.6.6 1.6.7-.1 2-1.1.8-2.5 1.1-3.2.9-1.8-.7-2.6.9-1.3 2.6.8 1.2.9 1.1.4-.4-.4-1.3-.2-1.7.8-1.3.7.3 2.3-.1 3.5-.9 1.1-.8 2.1-1.1 2.1-.6 0 1.5 2.5 2.1 4.1 1 1.1-.8 1.1-.9-.3-.4-2 .6-3.5-1-1.6-1.7.7-.2.5-.3-.4-.2-2 .3-4.5-2.2-3.3-3.3.4-.4 1-.1 1.2.5.3.7.9 1.3 1.5 1.3.7 0 .6-.5-.1-1.4-1.3-1.5-5.8-1.8-6.7-.4zM303 551.7c.5.2 1 .9 1 1.4 0 .6-.4.7-1 .4-.5-.3-1-.1-1 .5 0 .7.6 1 1.3.7 1.6-.5 1.6-3-.1-3.3-.7-.1-.8 0-.2.3zM338 551.8c0 .5.7.9 1.5.9s1.2-.4.9-.9c-.3-.4-.9-.8-1.5-.8-.5 0-.9.4-.9.8zM344.6 552.2c.3.5 1 .6 1.5.3 1.3-.9 1.1-1.2-.6-1.2-.8 0-1.2.4-.9.9zM237 552.8c0 .5 1 1.7 2.2 2.8l2.1 1.9-1.8-2.8c-1.8-2.8-2.5-3.3-2.5-1.9zM273.6 552.9c-.3.5.1 1.1.9 1.4.9.4 1.2.1.8-.9-.6-1.6-1-1.7-1.7-.5z"/><path d="M281.5 553c-.3.5-.1 1 .4 1 .6 0 1.1-.5 1.1-1 0-.6-.2-1-.4-1-.3 0-.8.4-1.1 1zM297 553c0 .5.5 1 1.1 1 .5 0 .7-.5.4-1-.3-.6-.8-1-1.1-1-.2 0-.4.4-.4 1zM229.5 554c-.3.5-.1 1 .4 1 .6 0 1.1-.5 1.1-1 0-.6-.2-1-.4-1-.3 0-.8.4-1.1 1zM235 553.7c0 .5 1 1.8 2.3 2.9l2.2 1.9-2-2.5c-1.1-1.4-2.1-2.7-2.2-2.9-.2-.2-.3 0-.3.6zM240.5 554c.3.5.8 1 1.1 1 .2 0 .4-.5.4-1 0-.6-.5-1-1.1-1-.5 0-.7.4-.4 1zM248 554c-1.3.8-1.3 1.1-.1 2.2.8.8 1.1.8.7.1-.3-.6 0-1.3.6-1.6.7-.2 1.1-.7.8-1-.3-.3-1.2-.2-2 .3zM310.7 554.4c-.4.9-.2 1.8.4 2.1.5.4.7 1 .5 1.4-.3.4-.1 1.3.4 2.1.6 1 .8.2.6-2.3-.4-4.4-1.1-5.5-1.9-3.3zM270.3 554.7c-.7.3-1.3 1.1-1.3 1.9 0 .9-.4 1.2-1 .9-.5-.3-1-.2-1 .3 0 .4 2.4.8 5.4.8 3 0 5.2-.4 4.9-.9-.2-.4.1-1.4.7-2.2.8-1 .9-1.5.2-1.5-.6 0-1.4.9-1.7 2-.3 1.1-1.1 2-1.6 2-.6 0-.8-.4-.4-.9.7-1.2-2.5-3-4.2-2.4zm3.2 2.1c-.9.9-3.5 1.1-3.5.3 0-1.4 1.2-2 2.6-1.4.8.3 1.2.8.9 1.1zM305.5 555.1c-.4.6-.4 1.3-.1 1.6.3.4.6.1.6-.5s.8-1.3 1.8-1.5c1.5-.4 1.5-.5 0-.6-.9 0-2 .4-2.3 1zM318 555.1c-1.3.9-1.3 1 .1.6.9-.3 2.2 0 2.8.6.9.9 1.1.8.6-.6-.8-2-1.4-2.1-3.5-.6zM231.6 555.8c-.2.4.4.8 1.4.8 1 0 1.6-.4 1.4-.8-.3-.4-.9-.8-1.4-.8-.5 0-1.1.4-1.4.8zM251.8 555.7c.7.3 1.6.2 1.9-.1.4-.3-.2-.6-1.3-.5-1.1 0-1.4.3-.6.6zM295 556c0 .5.5 1 1 1 .6 0 1-.5 1-1 0-.6-.4-1-1-1-.5 0-1 .4-1 1zM299.5 556c2.7 1.2 4.3 1.2 2.5 0-.8-.5-2.2-.9-3-.9-1 0-.8.3.5.9zM332 556c-.9.6-1 1-.3 1 .6 0 1.5-.5 1.8-1 .8-1.2.4-1.2-1.5 0zM339.6 556.2c.3.5 1 .6 1.5.3 1.3-.9 1.1-1.2-.6-1.2-.8 0-1.2.4-.9.9zM288.8 557.7c.6.2.9 1 .6 1.5-.4.7-.2.8.5.4 1.3-.9.5-2.6-1.2-2.5-.9 0-.8.2.1.6zM293.4 557.8c.3.5 0 1.2-.6 1.5-.7.2-1 .7-.7 1.1.3.4 1.2 0 1.8-.8.9-1.1.9-1.6 0-2.2-.7-.4-.9-.3-.5.4zM297.4 558.1c-.3.6-.1 1.6.5 2.2.9.9 1 .7.5-.7-.6-1.5-.4-1.7.6-1.1.9.5 1.1.4.6-.3-.9-1.5-1.3-1.5-2.2-.1zM303 559.1c0 .5.5.7 1 .4.6-.3 1-.8 1-1.1 0-.2-.4-.4-1-.4-.5 0-1 .5-1 1.1zM237.5 560c.3.5.8 1 1.1 1 .2 0 .4-.5.4-1 0-.6-.5-1-1.1-1-.5 0-.7.4-.4 1zM243.6 560.2c.3.5 1 .6 1.5.3 1.3-.9 1.1-1.2-.6-1.2-.8 0-1.2.4-.9.9zM253.5 559.9c-.3.5-.2 1.2.3 1.5.5.3.9-.1.9-.9 0-1.7-.3-1.9-1.2-.6zM261 560c0 .5.5 1 1.1 1 .5 0 .7-.5.4-1-.3-.6-.8-1-1.1-1-.2 0-.4.4-.4 1zM279 560.1c0 .5.5.7 1 .4.6-.3 1-.8 1-1.1 0-.2-.4-.4-1-.4-.5 0-1 .5-1 1.1zM281.5 562.1c-.3.4.2.6 1 .5 2.1-.3 2.8-1.3 1-1.3-.9 0-1.8.4-2 .8zM287 562.4c.4.4 1.6.4 2.6-.2 1.6-.9 1.4-1-.8-.9-1.5.1-2.3.6-1.8 1.1z"/></svg>